<?xml version="1.0" encoding="utf-8" standalone="no"?>
<!DOCTYPE svg PUBLIC "-//W3C//DTD SVG 1.1//EN"
  "http://www.w3.org/Graphics/SVG/1.1/DTD/svg11.dtd">
<!-- Created with matplotlib (http://matplotlib.org/) -->
<svg height="266pt" version="1.1" viewBox="0 0 756 266" width="756pt" xmlns="http://www.w3.org/2000/svg" xmlns:xlink="http://www.w3.org/1999/xlink">
 <defs>
  <style type="text/css">
*{stroke-linecap:butt;stroke-linejoin:round;stroke-miterlimit:100000;}
  </style>
 </defs>
 <g id="figure_1">
  <g id="patch_1">
   <path d="M 0 266.4 
L 756 266.4 
L 756 0 
L 0 0 
z
" style="fill:#ffffff;"/>
  </g>
  <g id="axes_1">
   <g id="patch_2">
    <path d="M 55.3725 193.86 
L 743.04 193.86 
L 743.04 18.81 
L 55.3725 18.81 
z
" style="fill:#ffffff;"/>
   </g>
   <g id="patch_3">
    <path clip-path="url(#pf7129816c9)" d="M 55.3725 193.86 
L 75.429469 193.86 
L 75.429469 193.86 
L 55.3725 193.86 
z
" style="fill:#f57900;stroke:#f57900;stroke-linejoin:miter;stroke-width:2.0;"/>
   </g>
   <g id="patch_4">
    <path clip-path="url(#pf7129816c9)" d="M 112.678125 193.86 
L 132.735094 193.86 
L 132.735094 193.86 
L 112.678125 193.86 
z
" style="fill:#f57900;stroke:#f57900;stroke-linejoin:miter;stroke-width:2.0;"/>
   </g>
   <g id="patch_5">
    <path clip-path="url(#pf7129816c9)" d="M 169.98375 193.86 
L 190.040719 193.86 
L 190.040719 193.86 
L 169.98375 193.86 
z
" style="fill:#f57900;stroke:#f57900;stroke-linejoin:miter;stroke-width:2.0;"/>
   </g>
   <g id="patch_6">
    <path clip-path="url(#pf7129816c9)" d="M 227.289375 193.86 
L 247.346344 193.86 
L 247.346344 193.86 
L 227.289375 193.86 
z
" style="fill:#f57900;stroke:#f57900;stroke-linejoin:miter;stroke-width:2.0;"/>
   </g>
   <g id="patch_7">
    <path clip-path="url(#pf7129816c9)" d="M 284.595 193.86 
L 304.651969 193.86 
L 304.651969 193.86 
L 284.595 193.86 
z
" style="fill:#f57900;stroke:#f57900;stroke-linejoin:miter;stroke-width:2.0;"/>
   </g>
   <g id="patch_8">
    <path clip-path="url(#pf7129816c9)" d="M 341.900625 193.86 
L 361.957594 193.86 
L 361.957594 187.328284 
L 341.900625 187.328284 
z
" style="fill:#f57900;stroke:#f57900;stroke-linejoin:miter;stroke-width:2.0;"/>
   </g>
   <g id="patch_9">
    <path clip-path="url(#pf7129816c9)" d="M 399.20625 193.86 
L 419.263219 193.86 
L 419.263219 193.86 
L 399.20625 193.86 
z
" style="fill:#f57900;stroke:#f57900;stroke-linejoin:miter;stroke-width:2.0;"/>
   </g>
   <g id="patch_10">
    <path clip-path="url(#pf7129816c9)" d="M 456.511875 193.86 
L 476.568844 193.86 
L 476.568844 193.86 
L 456.511875 193.86 
z
" style="fill:#f57900;stroke:#f57900;stroke-linejoin:miter;stroke-width:2.0;"/>
   </g>
   <g id="patch_11">
    <path clip-path="url(#pf7129816c9)" d="M 513.8175 193.86 
L 533.874469 193.86 
L 533.874469 174.264851 
L 513.8175 174.264851 
z
" style="fill:#f57900;stroke:#f57900;stroke-linejoin:miter;stroke-width:2.0;"/>
   </g>
   <g id="patch_12">
    <path clip-path="url(#pf7129816c9)" d="M 571.123125 193.86 
L 591.180094 193.86 
L 591.180094 161.201418 
L 571.123125 161.201418 
z
" style="fill:#f57900;stroke:#f57900;stroke-linejoin:miter;stroke-width:2.0;"/>
   </g>
   <g id="patch_13">
    <path clip-path="url(#pf7129816c9)" d="M 628.42875 193.86 
L 648.485719 193.86 
L 648.485719 161.201418 
L 628.42875 161.201418 
z
" style="fill:#f57900;stroke:#f57900;stroke-linejoin:miter;stroke-width:2.0;"/>
   </g>
   <g id="patch_14">
    <path clip-path="url(#pf7129816c9)" d="M 685.734375 193.86 
L 705.791344 193.86 
L 705.791344 161.201418 
L 685.734375 161.201418 
z
" style="fill:#f57900;stroke:#f57900;stroke-linejoin:miter;stroke-width:2.0;"/>
   </g>
   <g id="patch_15">
    <path clip-path="url(#pf7129816c9)" d="M 55.3725 193.86 
L 75.429469 193.86 
L 75.429469 193.86 
L 55.3725 193.86 
z
" style="fill:#ffffff;stroke:#f57900;stroke-linejoin:miter;stroke-width:2.0;"/>
   </g>
   <g id="patch_16">
    <path clip-path="url(#pf7129816c9)" d="M 112.678125 193.86 
L 132.735094 193.86 
L 132.735094 187.328284 
L 112.678125 187.328284 
z
" style="fill:#ffffff;stroke:#f57900;stroke-linejoin:miter;stroke-width:2.0;"/>
   </g>
   <g id="patch_17">
    <path clip-path="url(#pf7129816c9)" d="M 169.98375 193.86 
L 190.040719 193.86 
L 190.040719 193.86 
L 169.98375 193.86 
z
" style="fill:#ffffff;stroke:#f57900;stroke-linejoin:miter;stroke-width:2.0;"/>
   </g>
   <g id="patch_18">
    <path clip-path="url(#pf7129816c9)" d="M 227.289375 193.86 
L 247.346344 193.86 
L 247.346344 187.328284 
L 227.289375 187.328284 
z
" style="fill:#ffffff;stroke:#f57900;stroke-linejoin:miter;stroke-width:2.0;"/>
   </g>
   <g id="patch_19">
    <path clip-path="url(#pf7129816c9)" d="M 284.595 193.86 
L 304.651969 193.86 
L 304.651969 187.328284 
L 284.595 187.328284 
z
" style="fill:#ffffff;stroke:#f57900;stroke-linejoin:miter;stroke-width:2.0;"/>
   </g>
   <g id="patch_20">
    <path clip-path="url(#pf7129816c9)" d="M 341.900625 187.328284 
L 361.957594 187.328284 
L 361.957594 180.796567 
L 341.900625 180.796567 
z
" style="fill:#ffffff;stroke:#f57900;stroke-linejoin:miter;stroke-width:2.0;"/>
   </g>
   <g id="patch_21">
    <path clip-path="url(#pf7129816c9)" d="M 399.20625 193.86 
L 419.263219 193.86 
L 419.263219 180.796567 
L 399.20625 180.796567 
z
" style="fill:#ffffff;stroke:#f57900;stroke-linejoin:miter;stroke-width:2.0;"/>
   </g>
   <g id="patch_22">
    <path clip-path="url(#pf7129816c9)" d="M 456.511875 193.86 
L 476.568844 193.86 
L 476.568844 161.201418 
L 456.511875 161.201418 
z
" style="fill:#ffffff;stroke:#f57900;stroke-linejoin:miter;stroke-width:2.0;"/>
   </g>
   <g id="patch_23">
    <path clip-path="url(#pf7129816c9)" d="M 513.8175 174.264851 
L 533.874469 174.264851 
L 533.874469 167.733134 
L 513.8175 167.733134 
z
" style="fill:#ffffff;stroke:#f57900;stroke-linejoin:miter;stroke-width:2.0;"/>
   </g>
   <g id="patch_24">
    <path clip-path="url(#pf7129816c9)" d="M 571.123125 161.201418 
L 591.180094 161.201418 
L 591.180094 76.289104 
L 571.123125 76.289104 
z
" style="fill:#ffffff;stroke:#f57900;stroke-linejoin:miter;stroke-width:2.0;"/>
   </g>
   <g id="patch_25">
    <path clip-path="url(#pf7129816c9)" d="M 628.42875 161.201418 
L 648.485719 161.201418 
L 648.485719 56.693955 
L 628.42875 56.693955 
z
" style="fill:#ffffff;stroke:#f57900;stroke-linejoin:miter;stroke-width:2.0;"/>
   </g>
   <g id="patch_26">
    <path clip-path="url(#pf7129816c9)" d="M 685.734375 161.201418 
L 705.791344 161.201418 
L 705.791344 115.479403 
L 685.734375 115.479403 
z
" style="fill:#ffffff;stroke:#f57900;stroke-linejoin:miter;stroke-width:2.0;"/>
   </g>
   <g id="patch_27">
    <path clip-path="url(#pf7129816c9)" d="M 77.721694 193.86 
L 97.778662 193.86 
L 97.778662 193.86 
L 77.721694 193.86 
z
" style="fill:#75507b;stroke:#75507b;stroke-linejoin:miter;stroke-width:2.0;"/>
   </g>
   <g id="patch_28">
    <path clip-path="url(#pf7129816c9)" d="M 135.027319 193.86 
L 155.084288 193.86 
L 155.084288 193.86 
L 135.027319 193.86 
z
" style="fill:#75507b;stroke:#75507b;stroke-linejoin:miter;stroke-width:2.0;"/>
   </g>
   <g id="patch_29">
    <path clip-path="url(#pf7129816c9)" d="M 192.332944 193.86 
L 212.389913 193.86 
L 212.389913 160.196538 
L 192.332944 160.196538 
z
" style="fill:#75507b;stroke:#75507b;stroke-linejoin:miter;stroke-width:2.0;"/>
   </g>
   <g id="patch_30">
    <path clip-path="url(#pf7129816c9)" d="M 249.638569 193.86 
L 269.695538 193.86 
L 269.695538 193.86 
L 249.638569 193.86 
z
" style="fill:#75507b;stroke:#75507b;stroke-linejoin:miter;stroke-width:2.0;"/>
   </g>
   <g id="patch_31">
    <path clip-path="url(#pf7129816c9)" d="M 306.944194 193.86 
L 327.001162 193.86 
L 327.001162 193.86 
L 306.944194 193.86 
z
" style="fill:#75507b;stroke:#75507b;stroke-linejoin:miter;stroke-width:2.0;"/>
   </g>
   <g id="patch_32">
    <path clip-path="url(#pf7129816c9)" d="M 364.249819 193.86 
L 384.306787 193.86 
L 384.306787 160.196538 
L 364.249819 160.196538 
z
" style="fill:#75507b;stroke:#75507b;stroke-linejoin:miter;stroke-width:2.0;"/>
   </g>
   <g id="patch_33">
    <path clip-path="url(#pf7129816c9)" d="M 421.555444 193.86 
L 441.612412 193.86 
L 441.612412 193.86 
L 421.555444 193.86 
z
" style="fill:#75507b;stroke:#75507b;stroke-linejoin:miter;stroke-width:2.0;"/>
   </g>
   <g id="patch_34">
    <path clip-path="url(#pf7129816c9)" d="M 478.861069 193.86 
L 498.918037 193.86 
L 498.918037 193.86 
L 478.861069 193.86 
z
" style="fill:#75507b;stroke:#75507b;stroke-linejoin:miter;stroke-width:2.0;"/>
   </g>
   <g id="patch_35">
    <path clip-path="url(#pf7129816c9)" d="M 536.166694 193.86 
L 556.223662 193.86 
L 556.223662 193.86 
L 536.166694 193.86 
z
" style="fill:#75507b;stroke:#75507b;stroke-linejoin:miter;stroke-width:2.0;"/>
   </g>
   <g id="patch_36">
    <path clip-path="url(#pf7129816c9)" d="M 593.472319 193.86 
L 613.529287 193.86 
L 613.529287 193.86 
L 593.472319 193.86 
z
" style="fill:#75507b;stroke:#75507b;stroke-linejoin:miter;stroke-width:2.0;"/>
   </g>
   <g id="patch_37">
    <path clip-path="url(#pf7129816c9)" d="M 650.777944 193.86 
L 670.834912 193.86 
L 670.834912 193.86 
L 650.777944 193.86 
z
" style="fill:#75507b;stroke:#75507b;stroke-linejoin:miter;stroke-width:2.0;"/>
   </g>
   <g id="patch_38">
    <path clip-path="url(#pf7129816c9)" d="M 708.083569 193.86 
L 728.140537 193.86 
L 728.140537 193.86 
L 708.083569 193.86 
z
" style="fill:#75507b;stroke:#75507b;stroke-linejoin:miter;stroke-width:2.0;"/>
   </g>
   <g id="patch_39">
    <path clip-path="url(#pf7129816c9)" d="M 77.721694 193.86 
L 97.778662 193.86 
L 97.778662 126.533077 
L 77.721694 126.533077 
z
" style="fill:#ffffff;stroke:#75507b;stroke-linejoin:miter;stroke-width:2.0;"/>
   </g>
   <g id="patch_40">
    <path clip-path="url(#pf7129816c9)" d="M 135.027319 193.86 
L 155.084288 193.86 
L 155.084288 193.86 
L 135.027319 193.86 
z
" style="fill:#ffffff;stroke:#75507b;stroke-linejoin:miter;stroke-width:2.0;"/>
   </g>
   <g id="patch_41">
    <path clip-path="url(#pf7129816c9)" d="M 192.332944 160.196538 
L 212.389913 160.196538 
L 212.389913 160.196538 
L 192.332944 160.196538 
z
" style="fill:#ffffff;stroke:#75507b;stroke-linejoin:miter;stroke-width:2.0;"/>
   </g>
   <g id="patch_42">
    <path clip-path="url(#pf7129816c9)" d="M 249.638569 193.86 
L 269.695538 193.86 
L 269.695538 160.196538 
L 249.638569 160.196538 
z
" style="fill:#ffffff;stroke:#75507b;stroke-linejoin:miter;stroke-width:2.0;"/>
   </g>
   <g id="patch_43">
    <path clip-path="url(#pf7129816c9)" d="M 306.944194 193.86 
L 327.001162 193.86 
L 327.001162 193.86 
L 306.944194 193.86 
z
" style="fill:#ffffff;stroke:#75507b;stroke-linejoin:miter;stroke-width:2.0;"/>
   </g>
   <g id="patch_44">
    <path clip-path="url(#pf7129816c9)" d="M 364.249819 160.196538 
L 384.306787 160.196538 
L 384.306787 126.533077 
L 364.249819 126.533077 
z
" style="fill:#ffffff;stroke:#75507b;stroke-linejoin:miter;stroke-width:2.0;"/>
   </g>
   <g id="patch_45">
    <path clip-path="url(#pf7129816c9)" d="M 421.555444 193.86 
L 441.612412 193.86 
L 441.612412 160.196538 
L 421.555444 160.196538 
z
" style="fill:#ffffff;stroke:#75507b;stroke-linejoin:miter;stroke-width:2.0;"/>
   </g>
   <g id="patch_46">
    <path clip-path="url(#pf7129816c9)" d="M 478.861069 193.86 
L 498.918037 193.86 
L 498.918037 92.869615 
L 478.861069 92.869615 
z
" style="fill:#ffffff;stroke:#75507b;stroke-linejoin:miter;stroke-width:2.0;"/>
   </g>
   <g id="patch_47">
    <path clip-path="url(#pf7129816c9)" d="M 536.166694 193.86 
L 556.223662 193.86 
L 556.223662 126.533077 
L 536.166694 126.533077 
z
" style="fill:#ffffff;stroke:#75507b;stroke-linejoin:miter;stroke-width:2.0;"/>
   </g>
   <g id="patch_48">
    <path clip-path="url(#pf7129816c9)" d="M 593.472319 193.86 
L 613.529287 193.86 
L 613.529287 193.86 
L 593.472319 193.86 
z
" style="fill:#ffffff;stroke:#75507b;stroke-linejoin:miter;stroke-width:2.0;"/>
   </g>
   <g id="patch_49">
    <path clip-path="url(#pf7129816c9)" d="M 650.777944 193.86 
L 670.834912 193.86 
L 670.834912 160.196538 
L 650.777944 160.196538 
z
" style="fill:#ffffff;stroke:#75507b;stroke-linejoin:miter;stroke-width:2.0;"/>
   </g>
   <g id="patch_50">
    <path clip-path="url(#pf7129816c9)" d="M 708.083569 193.86 
L 728.140537 193.86 
L 728.140537 193.86 
L 708.083569 193.86 
z
" style="fill:#ffffff;stroke:#75507b;stroke-linejoin:miter;stroke-width:2.0;"/>
   </g>
   <g id="patch_51">
    <path d="M 55.3725 193.86 
L 743.04 193.86 
" style="fill:none;stroke:#000000;stroke-linecap:square;stroke-linejoin:miter;"/>
   </g>
   <g id="patch_52">
    <path d="M 55.3725 193.86 
L 55.3725 18.81 
" style="fill:none;stroke:#000000;stroke-linecap:square;stroke-linejoin:miter;"/>
   </g>
   <g id="matplotlib.axis_1">
    <g id="xtick_1">
     <g id="line2d_1">
      <defs>
       <path d="M 0 0 
L 0 -4 
" id="m2f26db9e06" style="stroke:#000000;stroke-width:0.5;"/>
      </defs>
      <g>
       <use style="stroke:#000000;stroke-width:0.5;" x="75.42946875" xlink:href="#m2f26db9e06" y="193.86"/>
      </g>
     </g>
     <g id="text_1">
      <!-- 0.0 -->
      <defs>
       <path d="M 31.78125 66.40625 
Q 24.171875 66.40625 20.328125 58.90625 
Q 16.5 51.421875 16.5 36.375 
Q 16.5 21.390625 20.328125 13.890625 
Q 24.171875 6.390625 31.78125 6.390625 
Q 39.453125 6.390625 43.28125 13.890625 
Q 47.125 21.390625 47.125 36.375 
Q 47.125 51.421875 43.28125 58.90625 
Q 39.453125 66.40625 31.78125 66.40625 
M 31.78125 74.21875 
Q 44.046875 74.21875 50.515625 64.515625 
Q 56.984375 54.828125 56.984375 36.375 
Q 56.984375 17.96875 50.515625 8.265625 
Q 44.046875 -1.421875 31.78125 -1.421875 
Q 19.53125 -1.421875 13.0625 8.265625 
Q 6.59375 17.96875 6.59375 36.375 
Q 6.59375 54.828125 13.0625 64.515625 
Q 19.53125 74.21875 31.78125 74.21875 
" id="BitstreamVeraSans-Roman-30"/>
       <path d="M 10.6875 12.40625 
L 21 12.40625 
L 21 0 
L 10.6875 0 
z
" id="BitstreamVeraSans-Roman-2e"/>
      </defs>
      <g transform="translate(59.52634375 213.056875)scale(0.2 -0.2)">
       <use xlink:href="#BitstreamVeraSans-Roman-30"/>
       <use x="63.623046875" xlink:href="#BitstreamVeraSans-Roman-2e"/>
       <use x="95.41015625" xlink:href="#BitstreamVeraSans-Roman-30"/>
      </g>
     </g>
    </g>
    <g id="xtick_2">
     <g id="line2d_2">
      <g>
       <use style="stroke:#000000;stroke-width:0.5;" x="132.73509375" xlink:href="#m2f26db9e06" y="193.86"/>
      </g>
     </g>
     <g id="text_2">
      <!-- 4.0 -->
      <defs>
       <path d="M 37.796875 64.3125 
L 12.890625 25.390625 
L 37.796875 25.390625 
z
M 35.203125 72.90625 
L 47.609375 72.90625 
L 47.609375 25.390625 
L 58.015625 25.390625 
L 58.015625 17.1875 
L 47.609375 17.1875 
L 47.609375 0 
L 37.796875 0 
L 37.796875 17.1875 
L 4.890625 17.1875 
L 4.890625 26.703125 
z
" id="BitstreamVeraSans-Roman-34"/>
      </defs>
      <g transform="translate(116.83196875 213.056875)scale(0.2 -0.2)">
       <use xlink:href="#BitstreamVeraSans-Roman-34"/>
       <use x="63.623046875" xlink:href="#BitstreamVeraSans-Roman-2e"/>
       <use x="95.41015625" xlink:href="#BitstreamVeraSans-Roman-30"/>
      </g>
     </g>
    </g>
    <g id="xtick_3">
     <g id="line2d_3">
      <g>
       <use style="stroke:#000000;stroke-width:0.5;" x="190.04071875" xlink:href="#m2f26db9e06" y="193.86"/>
      </g>
     </g>
     <g id="text_3">
      <!-- 5.7 -->
      <defs>
       <path d="M 8.203125 72.90625 
L 55.078125 72.90625 
L 55.078125 68.703125 
L 28.609375 0 
L 18.3125 0 
L 43.21875 64.59375 
L 8.203125 64.59375 
z
" id="BitstreamVeraSans-Roman-37"/>
       <path d="M 10.796875 72.90625 
L 49.515625 72.90625 
L 49.515625 64.59375 
L 19.828125 64.59375 
L 19.828125 46.734375 
Q 21.96875 47.46875 24.109375 47.828125 
Q 26.265625 48.1875 28.421875 48.1875 
Q 40.625 48.1875 47.75 41.5 
Q 54.890625 34.8125 54.890625 23.390625 
Q 54.890625 11.625 47.5625 5.09375 
Q 40.234375 -1.421875 26.90625 -1.421875 
Q 22.3125 -1.421875 17.546875 -0.640625 
Q 12.796875 0.140625 7.71875 1.703125 
L 7.71875 11.625 
Q 12.109375 9.234375 16.796875 8.0625 
Q 21.484375 6.890625 26.703125 6.890625 
Q 35.15625 6.890625 40.078125 11.328125 
Q 45.015625 15.765625 45.015625 23.390625 
Q 45.015625 31 40.078125 35.4375 
Q 35.15625 39.890625 26.703125 39.890625 
Q 22.75 39.890625 18.8125 39.015625 
Q 14.890625 38.140625 10.796875 36.28125 
z
" id="BitstreamVeraSans-Roman-35"/>
      </defs>
      <g transform="translate(174.13759375 213.056875)scale(0.2 -0.2)">
       <use xlink:href="#BitstreamVeraSans-Roman-35"/>
       <use x="63.623046875" xlink:href="#BitstreamVeraSans-Roman-2e"/>
       <use x="95.41015625" xlink:href="#BitstreamVeraSans-Roman-37"/>
      </g>
     </g>
    </g>
    <g id="xtick_4">
     <g id="line2d_4">
      <g>
       <use style="stroke:#000000;stroke-width:0.5;" x="247.34634375" xlink:href="#m2f26db9e06" y="193.86"/>
      </g>
     </g>
     <g id="text_4">
      <!-- 8.0 -->
      <defs>
       <path d="M 31.78125 34.625 
Q 24.75 34.625 20.71875 30.859375 
Q 16.703125 27.09375 16.703125 20.515625 
Q 16.703125 13.921875 20.71875 10.15625 
Q 24.75 6.390625 31.78125 6.390625 
Q 38.8125 6.390625 42.859375 10.171875 
Q 46.921875 13.96875 46.921875 20.515625 
Q 46.921875 27.09375 42.890625 30.859375 
Q 38.875 34.625 31.78125 34.625 
M 21.921875 38.8125 
Q 15.578125 40.375 12.03125 44.71875 
Q 8.5 49.078125 8.5 55.328125 
Q 8.5 64.0625 14.71875 69.140625 
Q 20.953125 74.21875 31.78125 74.21875 
Q 42.671875 74.21875 48.875 69.140625 
Q 55.078125 64.0625 55.078125 55.328125 
Q 55.078125 49.078125 51.53125 44.71875 
Q 48 40.375 41.703125 38.8125 
Q 48.828125 37.15625 52.796875 32.3125 
Q 56.78125 27.484375 56.78125 20.515625 
Q 56.78125 9.90625 50.3125 4.234375 
Q 43.84375 -1.421875 31.78125 -1.421875 
Q 19.734375 -1.421875 13.25 4.234375 
Q 6.78125 9.90625 6.78125 20.515625 
Q 6.78125 27.484375 10.78125 32.3125 
Q 14.796875 37.15625 21.921875 38.8125 
M 18.3125 54.390625 
Q 18.3125 48.734375 21.84375 45.5625 
Q 25.390625 42.390625 31.78125 42.390625 
Q 38.140625 42.390625 41.71875 45.5625 
Q 45.3125 48.734375 45.3125 54.390625 
Q 45.3125 60.0625 41.71875 63.234375 
Q 38.140625 66.40625 31.78125 66.40625 
Q 25.390625 66.40625 21.84375 63.234375 
Q 18.3125 60.0625 18.3125 54.390625 
" id="BitstreamVeraSans-Roman-38"/>
      </defs>
      <g transform="translate(231.44321875 213.056875)scale(0.2 -0.2)">
       <use xlink:href="#BitstreamVeraSans-Roman-38"/>
       <use x="63.623046875" xlink:href="#BitstreamVeraSans-Roman-2e"/>
       <use x="95.41015625" xlink:href="#BitstreamVeraSans-Roman-30"/>
      </g>
     </g>
    </g>
    <g id="xtick_5">
     <g id="line2d_5">
      <g>
       <use style="stroke:#000000;stroke-width:0.5;" x="304.65196875" xlink:href="#m2f26db9e06" y="193.86"/>
      </g>
     </g>
     <g id="text_5">
      <!-- 11.3 -->
      <defs>
       <path d="M 40.578125 39.3125 
Q 47.65625 37.796875 51.625 33 
Q 55.609375 28.21875 55.609375 21.1875 
Q 55.609375 10.40625 48.1875 4.484375 
Q 40.765625 -1.421875 27.09375 -1.421875 
Q 22.515625 -1.421875 17.65625 -0.515625 
Q 12.796875 0.390625 7.625 2.203125 
L 7.625 11.71875 
Q 11.71875 9.328125 16.59375 8.109375 
Q 21.484375 6.890625 26.8125 6.890625 
Q 36.078125 6.890625 40.9375 10.546875 
Q 45.796875 14.203125 45.796875 21.1875 
Q 45.796875 27.640625 41.28125 31.265625 
Q 36.765625 34.90625 28.71875 34.90625 
L 20.21875 34.90625 
L 20.21875 43.015625 
L 29.109375 43.015625 
Q 36.375 43.015625 40.234375 45.921875 
Q 44.09375 48.828125 44.09375 54.296875 
Q 44.09375 59.90625 40.109375 62.90625 
Q 36.140625 65.921875 28.71875 65.921875 
Q 24.65625 65.921875 20.015625 65.03125 
Q 15.375 64.15625 9.8125 62.3125 
L 9.8125 71.09375 
Q 15.4375 72.65625 20.34375 73.4375 
Q 25.25 74.21875 29.59375 74.21875 
Q 40.828125 74.21875 47.359375 69.109375 
Q 53.90625 64.015625 53.90625 55.328125 
Q 53.90625 49.265625 50.4375 45.09375 
Q 46.96875 40.921875 40.578125 39.3125 
" id="BitstreamVeraSans-Roman-33"/>
       <path d="M 12.40625 8.296875 
L 28.515625 8.296875 
L 28.515625 63.921875 
L 10.984375 60.40625 
L 10.984375 69.390625 
L 28.421875 72.90625 
L 38.28125 72.90625 
L 38.28125 8.296875 
L 54.390625 8.296875 
L 54.390625 0 
L 12.40625 0 
z
" id="BitstreamVeraSans-Roman-31"/>
      </defs>
      <g transform="translate(282.38634375 213.056875)scale(0.2 -0.2)">
       <use xlink:href="#BitstreamVeraSans-Roman-31"/>
       <use x="63.623046875" xlink:href="#BitstreamVeraSans-Roman-31"/>
       <use x="127.24609375" xlink:href="#BitstreamVeraSans-Roman-2e"/>
       <use x="159.033203125" xlink:href="#BitstreamVeraSans-Roman-33"/>
      </g>
     </g>
    </g>
    <g id="xtick_6">
     <g id="line2d_6">
      <g>
       <use style="stroke:#000000;stroke-width:0.5;" x="361.95759375" xlink:href="#m2f26db9e06" y="193.86"/>
      </g>
     </g>
     <g id="text_6">
      <!-- 16.0 -->
      <defs>
       <path d="M 33.015625 40.375 
Q 26.375 40.375 22.484375 35.828125 
Q 18.609375 31.296875 18.609375 23.390625 
Q 18.609375 15.53125 22.484375 10.953125 
Q 26.375 6.390625 33.015625 6.390625 
Q 39.65625 6.390625 43.53125 10.953125 
Q 47.40625 15.53125 47.40625 23.390625 
Q 47.40625 31.296875 43.53125 35.828125 
Q 39.65625 40.375 33.015625 40.375 
M 52.59375 71.296875 
L 52.59375 62.3125 
Q 48.875 64.0625 45.09375 64.984375 
Q 41.3125 65.921875 37.59375 65.921875 
Q 27.828125 65.921875 22.671875 59.328125 
Q 17.53125 52.734375 16.796875 39.40625 
Q 19.671875 43.65625 24.015625 45.921875 
Q 28.375 48.1875 33.59375 48.1875 
Q 44.578125 48.1875 50.953125 41.515625 
Q 57.328125 34.859375 57.328125 23.390625 
Q 57.328125 12.15625 50.6875 5.359375 
Q 44.046875 -1.421875 33.015625 -1.421875 
Q 20.359375 -1.421875 13.671875 8.265625 
Q 6.984375 17.96875 6.984375 36.375 
Q 6.984375 53.65625 15.1875 63.9375 
Q 23.390625 74.21875 37.203125 74.21875 
Q 40.921875 74.21875 44.703125 73.484375 
Q 48.484375 72.75 52.59375 71.296875 
" id="BitstreamVeraSans-Roman-36"/>
      </defs>
      <g transform="translate(339.69196875 213.056875)scale(0.2 -0.2)">
       <use xlink:href="#BitstreamVeraSans-Roman-31"/>
       <use x="63.623046875" xlink:href="#BitstreamVeraSans-Roman-36"/>
       <use x="127.24609375" xlink:href="#BitstreamVeraSans-Roman-2e"/>
       <use x="159.033203125" xlink:href="#BitstreamVeraSans-Roman-30"/>
      </g>
     </g>
    </g>
    <g id="xtick_7">
     <g id="line2d_7">
      <g>
       <use style="stroke:#000000;stroke-width:0.5;" x="419.26321875" xlink:href="#m2f26db9e06" y="193.86"/>
      </g>
     </g>
     <g id="text_7">
      <!-- 22.6 -->
      <defs>
       <path d="M 19.1875 8.296875 
L 53.609375 8.296875 
L 53.609375 0 
L 7.328125 0 
L 7.328125 8.296875 
Q 12.9375 14.109375 22.625 23.890625 
Q 32.328125 33.6875 34.8125 36.53125 
Q 39.546875 41.84375 41.421875 45.53125 
Q 43.3125 49.21875 43.3125 52.78125 
Q 43.3125 58.59375 39.234375 62.25 
Q 35.15625 65.921875 28.609375 65.921875 
Q 23.96875 65.921875 18.8125 64.3125 
Q 13.671875 62.703125 7.8125 59.421875 
L 7.8125 69.390625 
Q 13.765625 71.78125 18.9375 73 
Q 24.125 74.21875 28.421875 74.21875 
Q 39.75 74.21875 46.484375 68.546875 
Q 53.21875 62.890625 53.21875 53.421875 
Q 53.21875 48.921875 51.53125 44.890625 
Q 49.859375 40.875 45.40625 35.40625 
Q 44.1875 33.984375 37.640625 27.21875 
Q 31.109375 20.453125 19.1875 8.296875 
" id="BitstreamVeraSans-Roman-32"/>
      </defs>
      <g transform="translate(396.99759375 213.056875)scale(0.2 -0.2)">
       <use xlink:href="#BitstreamVeraSans-Roman-32"/>
       <use x="63.623046875" xlink:href="#BitstreamVeraSans-Roman-32"/>
       <use x="127.24609375" xlink:href="#BitstreamVeraSans-Roman-2e"/>
       <use x="159.033203125" xlink:href="#BitstreamVeraSans-Roman-36"/>
      </g>
     </g>
    </g>
    <g id="xtick_8">
     <g id="line2d_8">
      <g>
       <use style="stroke:#000000;stroke-width:0.5;" x="476.56884375" xlink:href="#m2f26db9e06" y="193.86"/>
      </g>
     </g>
     <g id="text_8">
      <!-- 32.0 -->
      <g transform="translate(454.30321875 213.056875)scale(0.2 -0.2)">
       <use xlink:href="#BitstreamVeraSans-Roman-33"/>
       <use x="63.623046875" xlink:href="#BitstreamVeraSans-Roman-32"/>
       <use x="127.24609375" xlink:href="#BitstreamVeraSans-Roman-2e"/>
       <use x="159.033203125" xlink:href="#BitstreamVeraSans-Roman-30"/>
      </g>
     </g>
    </g>
    <g id="xtick_9">
     <g id="line2d_9">
      <g>
       <use style="stroke:#000000;stroke-width:0.5;" x="533.87446875" xlink:href="#m2f26db9e06" y="193.86"/>
      </g>
     </g>
     <g id="text_9">
      <!-- 45.3 -->
      <g transform="translate(511.60884375 213.056875)scale(0.2 -0.2)">
       <use xlink:href="#BitstreamVeraSans-Roman-34"/>
       <use x="63.623046875" xlink:href="#BitstreamVeraSans-Roman-35"/>
       <use x="127.24609375" xlink:href="#BitstreamVeraSans-Roman-2e"/>
       <use x="159.033203125" xlink:href="#BitstreamVeraSans-Roman-33"/>
      </g>
     </g>
    </g>
    <g id="xtick_10">
     <g id="line2d_10">
      <g>
       <use style="stroke:#000000;stroke-width:0.5;" x="591.18009375" xlink:href="#m2f26db9e06" y="193.86"/>
      </g>
     </g>
     <g id="text_10">
      <!-- 64.0 -->
      <g transform="translate(568.91446875 213.056875)scale(0.2 -0.2)">
       <use xlink:href="#BitstreamVeraSans-Roman-36"/>
       <use x="63.623046875" xlink:href="#BitstreamVeraSans-Roman-34"/>
       <use x="127.24609375" xlink:href="#BitstreamVeraSans-Roman-2e"/>
       <use x="159.033203125" xlink:href="#BitstreamVeraSans-Roman-30"/>
      </g>
     </g>
    </g>
    <g id="xtick_11">
     <g id="line2d_11">
      <g>
       <use style="stroke:#000000;stroke-width:0.5;" x="648.48571875" xlink:href="#m2f26db9e06" y="193.86"/>
      </g>
     </g>
     <g id="text_11">
      <!-- 90.5 -->
      <defs>
       <path d="M 10.984375 1.515625 
L 10.984375 10.5 
Q 14.703125 8.734375 18.5 7.8125 
Q 22.3125 6.890625 25.984375 6.890625 
Q 35.75 6.890625 40.890625 13.453125 
Q 46.046875 20.015625 46.78125 33.40625 
Q 43.953125 29.203125 39.59375 26.953125 
Q 35.25 24.703125 29.984375 24.703125 
Q 19.046875 24.703125 12.671875 31.3125 
Q 6.296875 37.9375 6.296875 49.421875 
Q 6.296875 60.640625 12.9375 67.421875 
Q 19.578125 74.21875 30.609375 74.21875 
Q 43.265625 74.21875 49.921875 64.515625 
Q 56.59375 54.828125 56.59375 36.375 
Q 56.59375 19.140625 48.40625 8.859375 
Q 40.234375 -1.421875 26.421875 -1.421875 
Q 22.703125 -1.421875 18.890625 -0.6875 
Q 15.09375 0.046875 10.984375 1.515625 
M 30.609375 32.421875 
Q 37.25 32.421875 41.125 36.953125 
Q 45.015625 41.5 45.015625 49.421875 
Q 45.015625 57.28125 41.125 61.84375 
Q 37.25 66.40625 30.609375 66.40625 
Q 23.96875 66.40625 20.09375 61.84375 
Q 16.21875 57.28125 16.21875 49.421875 
Q 16.21875 41.5 20.09375 36.953125 
Q 23.96875 32.421875 30.609375 32.421875 
" id="BitstreamVeraSans-Roman-39"/>
      </defs>
      <g transform="translate(626.22009375 213.056875)scale(0.2 -0.2)">
       <use xlink:href="#BitstreamVeraSans-Roman-39"/>
       <use x="63.623046875" xlink:href="#BitstreamVeraSans-Roman-30"/>
       <use x="127.24609375" xlink:href="#BitstreamVeraSans-Roman-2e"/>
       <use x="159.033203125" xlink:href="#BitstreamVeraSans-Roman-35"/>
      </g>
     </g>
    </g>
    <g id="xtick_12">
     <g id="line2d_12">
      <g>
       <use style="stroke:#000000;stroke-width:0.5;" x="705.79134375" xlink:href="#m2f26db9e06" y="193.86"/>
      </g>
     </g>
     <g id="text_12">
      <!-- 128.0 -->
      <g transform="translate(677.16321875 213.056875)scale(0.2 -0.2)">
       <use xlink:href="#BitstreamVeraSans-Roman-31"/>
       <use x="63.623046875" xlink:href="#BitstreamVeraSans-Roman-32"/>
       <use x="127.24609375" xlink:href="#BitstreamVeraSans-Roman-38"/>
       <use x="190.869140625" xlink:href="#BitstreamVeraSans-Roman-2e"/>
       <use x="222.65625" xlink:href="#BitstreamVeraSans-Roman-30"/>
      </g>
     </g>
    </g>
    <g id="text_13">
     <!-- Maximum AM rate to which responses -->
     <defs>
      <path id="BitstreamVeraSans-Roman-20"/>
      <path d="M 9.8125 72.90625 
L 24.515625 72.90625 
L 43.109375 23.296875 
L 61.8125 72.90625 
L 76.515625 72.90625 
L 76.515625 0 
L 66.890625 0 
L 66.890625 64.015625 
L 48.09375 14.015625 
L 38.1875 14.015625 
L 19.390625 64.015625 
L 19.390625 0 
L 9.8125 0 
z
" id="BitstreamVeraSans-Roman-4d"/>
      <path d="M 18.109375 8.203125 
L 18.109375 -20.796875 
L 9.078125 -20.796875 
L 9.078125 54.6875 
L 18.109375 54.6875 
L 18.109375 46.390625 
Q 20.953125 51.265625 25.265625 53.625 
Q 29.59375 56 35.59375 56 
Q 45.5625 56 51.78125 48.09375 
Q 58.015625 40.1875 58.015625 27.296875 
Q 58.015625 14.40625 51.78125 6.484375 
Q 45.5625 -1.421875 35.59375 -1.421875 
Q 29.59375 -1.421875 25.265625 0.953125 
Q 20.953125 3.328125 18.109375 8.203125 
M 48.6875 27.296875 
Q 48.6875 37.203125 44.609375 42.84375 
Q 40.53125 48.484375 33.40625 48.484375 
Q 26.265625 48.484375 22.1875 42.84375 
Q 18.109375 37.203125 18.109375 27.296875 
Q 18.109375 17.390625 22.1875 11.75 
Q 26.265625 6.109375 33.40625 6.109375 
Q 40.53125 6.109375 44.609375 11.75 
Q 48.6875 17.390625 48.6875 27.296875 
" id="BitstreamVeraSans-Roman-70"/>
      <path d="M 34.1875 63.1875 
L 20.796875 26.90625 
L 47.609375 26.90625 
z
M 28.609375 72.90625 
L 39.796875 72.90625 
L 67.578125 0 
L 57.328125 0 
L 50.6875 18.703125 
L 17.828125 18.703125 
L 11.1875 0 
L 0.78125 0 
z
" id="BitstreamVeraSans-Roman-41"/>
      <path d="M 41.109375 46.296875 
Q 39.59375 47.171875 37.8125 47.578125 
Q 36.03125 48 33.890625 48 
Q 26.265625 48 22.1875 43.046875 
Q 18.109375 38.09375 18.109375 28.8125 
L 18.109375 0 
L 9.078125 0 
L 9.078125 54.6875 
L 18.109375 54.6875 
L 18.109375 46.1875 
Q 20.953125 51.171875 25.484375 53.578125 
Q 30.03125 56 36.53125 56 
Q 37.453125 56 38.578125 55.875 
Q 39.703125 55.765625 41.0625 55.515625 
z
" id="BitstreamVeraSans-Roman-72"/>
      <path d="M 52 44.1875 
Q 55.375 50.25 60.0625 53.125 
Q 64.75 56 71.09375 56 
Q 79.640625 56 84.28125 50.015625 
Q 88.921875 44.046875 88.921875 33.015625 
L 88.921875 0 
L 79.890625 0 
L 79.890625 32.71875 
Q 79.890625 40.578125 77.09375 44.375 
Q 74.3125 48.1875 68.609375 48.1875 
Q 61.625 48.1875 57.5625 43.546875 
Q 53.515625 38.921875 53.515625 30.90625 
L 53.515625 0 
L 44.484375 0 
L 44.484375 32.71875 
Q 44.484375 40.625 41.703125 44.40625 
Q 38.921875 48.1875 33.109375 48.1875 
Q 26.21875 48.1875 22.15625 43.53125 
Q 18.109375 38.875 18.109375 30.90625 
L 18.109375 0 
L 9.078125 0 
L 9.078125 54.6875 
L 18.109375 54.6875 
L 18.109375 46.1875 
Q 21.1875 51.21875 25.484375 53.609375 
Q 29.78125 56 35.6875 56 
Q 41.65625 56 45.828125 52.96875 
Q 50 49.953125 52 44.1875 
" id="BitstreamVeraSans-Roman-6d"/>
      <path d="M 30.609375 48.390625 
Q 23.390625 48.390625 19.1875 42.75 
Q 14.984375 37.109375 14.984375 27.296875 
Q 14.984375 17.484375 19.15625 11.84375 
Q 23.34375 6.203125 30.609375 6.203125 
Q 37.796875 6.203125 41.984375 11.859375 
Q 46.1875 17.53125 46.1875 27.296875 
Q 46.1875 37.015625 41.984375 42.703125 
Q 37.796875 48.390625 30.609375 48.390625 
M 30.609375 56 
Q 42.328125 56 49.015625 48.375 
Q 55.71875 40.765625 55.71875 27.296875 
Q 55.71875 13.875 49.015625 6.21875 
Q 42.328125 -1.421875 30.609375 -1.421875 
Q 18.84375 -1.421875 12.171875 6.21875 
Q 5.515625 13.875 5.515625 27.296875 
Q 5.515625 40.765625 12.171875 48.375 
Q 18.84375 56 30.609375 56 
" id="BitstreamVeraSans-Roman-6f"/>
      <path d="M 54.890625 33.015625 
L 54.890625 0 
L 45.90625 0 
L 45.90625 32.71875 
Q 45.90625 40.484375 42.875 44.328125 
Q 39.84375 48.1875 33.796875 48.1875 
Q 26.515625 48.1875 22.3125 43.546875 
Q 18.109375 38.921875 18.109375 30.90625 
L 18.109375 0 
L 9.078125 0 
L 9.078125 54.6875 
L 18.109375 54.6875 
L 18.109375 46.1875 
Q 21.34375 51.125 25.703125 53.5625 
Q 30.078125 56 35.796875 56 
Q 45.21875 56 50.046875 50.171875 
Q 54.890625 44.34375 54.890625 33.015625 
" id="BitstreamVeraSans-Roman-6e"/>
      <path d="M 9.421875 54.6875 
L 18.40625 54.6875 
L 18.40625 0 
L 9.421875 0 
z
M 9.421875 75.984375 
L 18.40625 75.984375 
L 18.40625 64.59375 
L 9.421875 64.59375 
z
" id="BitstreamVeraSans-Roman-69"/>
      <path d="M 54.890625 33.015625 
L 54.890625 0 
L 45.90625 0 
L 45.90625 32.71875 
Q 45.90625 40.484375 42.875 44.328125 
Q 39.84375 48.1875 33.796875 48.1875 
Q 26.515625 48.1875 22.3125 43.546875 
Q 18.109375 38.921875 18.109375 30.90625 
L 18.109375 0 
L 9.078125 0 
L 9.078125 75.984375 
L 18.109375 75.984375 
L 18.109375 46.1875 
Q 21.34375 51.125 25.703125 53.5625 
Q 30.078125 56 35.796875 56 
Q 45.21875 56 50.046875 50.171875 
Q 54.890625 44.34375 54.890625 33.015625 
" id="BitstreamVeraSans-Roman-68"/>
      <path d="M 54.890625 54.6875 
L 35.109375 28.078125 
L 55.90625 0 
L 45.3125 0 
L 29.390625 21.484375 
L 13.484375 0 
L 2.875 0 
L 24.125 28.609375 
L 4.6875 54.6875 
L 15.28125 54.6875 
L 29.78125 35.203125 
L 44.28125 54.6875 
z
" id="BitstreamVeraSans-Roman-78"/>
      <path d="M 56.203125 29.59375 
L 56.203125 25.203125 
L 14.890625 25.203125 
Q 15.484375 15.921875 20.484375 11.0625 
Q 25.484375 6.203125 34.421875 6.203125 
Q 39.59375 6.203125 44.453125 7.46875 
Q 49.3125 8.734375 54.109375 11.28125 
L 54.109375 2.78125 
Q 49.265625 0.734375 44.1875 -0.34375 
Q 39.109375 -1.421875 33.890625 -1.421875 
Q 20.796875 -1.421875 13.15625 6.1875 
Q 5.515625 13.8125 5.515625 26.8125 
Q 5.515625 40.234375 12.765625 48.109375 
Q 20.015625 56 32.328125 56 
Q 43.359375 56 49.78125 48.890625 
Q 56.203125 41.796875 56.203125 29.59375 
M 47.21875 32.234375 
Q 47.125 39.59375 43.09375 43.984375 
Q 39.0625 48.390625 32.421875 48.390625 
Q 24.90625 48.390625 20.390625 44.140625 
Q 15.875 39.890625 15.1875 32.171875 
z
" id="BitstreamVeraSans-Roman-65"/>
      <path d="M 4.203125 54.6875 
L 13.1875 54.6875 
L 24.421875 12.015625 
L 35.59375 54.6875 
L 46.1875 54.6875 
L 57.421875 12.015625 
L 68.609375 54.6875 
L 77.59375 54.6875 
L 63.28125 0 
L 52.6875 0 
L 40.921875 44.828125 
L 29.109375 0 
L 18.5 0 
z
" id="BitstreamVeraSans-Roman-77"/>
      <path d="M 18.3125 70.21875 
L 18.3125 54.6875 
L 36.8125 54.6875 
L 36.8125 47.703125 
L 18.3125 47.703125 
L 18.3125 18.015625 
Q 18.3125 11.328125 20.140625 9.421875 
Q 21.96875 7.515625 27.59375 7.515625 
L 36.8125 7.515625 
L 36.8125 0 
L 27.59375 0 
Q 17.1875 0 13.234375 3.875 
Q 9.28125 7.765625 9.28125 18.015625 
L 9.28125 47.703125 
L 2.6875 47.703125 
L 2.6875 54.6875 
L 9.28125 54.6875 
L 9.28125 70.21875 
z
" id="BitstreamVeraSans-Roman-74"/>
      <path d="M 8.5 21.578125 
L 8.5 54.6875 
L 17.484375 54.6875 
L 17.484375 21.921875 
Q 17.484375 14.15625 20.5 10.265625 
Q 23.53125 6.390625 29.59375 6.390625 
Q 36.859375 6.390625 41.078125 11.03125 
Q 45.3125 15.671875 45.3125 23.6875 
L 45.3125 54.6875 
L 54.296875 54.6875 
L 54.296875 0 
L 45.3125 0 
L 45.3125 8.40625 
Q 42.046875 3.421875 37.71875 1 
Q 33.40625 -1.421875 27.6875 -1.421875 
Q 18.265625 -1.421875 13.375 4.4375 
Q 8.5 10.296875 8.5 21.578125 
" id="BitstreamVeraSans-Roman-75"/>
      <path d="M 34.28125 27.484375 
Q 23.390625 27.484375 19.1875 25 
Q 14.984375 22.515625 14.984375 16.5 
Q 14.984375 11.71875 18.140625 8.90625 
Q 21.296875 6.109375 26.703125 6.109375 
Q 34.1875 6.109375 38.703125 11.40625 
Q 43.21875 16.703125 43.21875 25.484375 
L 43.21875 27.484375 
z
M 52.203125 31.203125 
L 52.203125 0 
L 43.21875 0 
L 43.21875 8.296875 
Q 40.140625 3.328125 35.546875 0.953125 
Q 30.953125 -1.421875 24.3125 -1.421875 
Q 15.921875 -1.421875 10.953125 3.296875 
Q 6 8.015625 6 15.921875 
Q 6 25.140625 12.171875 29.828125 
Q 18.359375 34.515625 30.609375 34.515625 
L 43.21875 34.515625 
L 43.21875 35.40625 
Q 43.21875 41.609375 39.140625 45 
Q 35.0625 48.390625 27.6875 48.390625 
Q 23 48.390625 18.546875 47.265625 
Q 14.109375 46.140625 10.015625 43.890625 
L 10.015625 52.203125 
Q 14.9375 54.109375 19.578125 55.046875 
Q 24.21875 56 28.609375 56 
Q 40.484375 56 46.34375 49.84375 
Q 52.203125 43.703125 52.203125 31.203125 
" id="BitstreamVeraSans-Roman-61"/>
      <path d="M 44.28125 53.078125 
L 44.28125 44.578125 
Q 40.484375 46.53125 36.375 47.5 
Q 32.28125 48.484375 27.875 48.484375 
Q 21.1875 48.484375 17.84375 46.4375 
Q 14.5 44.390625 14.5 40.28125 
Q 14.5 37.15625 16.890625 35.375 
Q 19.28125 33.59375 26.515625 31.984375 
L 29.59375 31.296875 
Q 39.15625 29.25 43.1875 25.515625 
Q 47.21875 21.78125 47.21875 15.09375 
Q 47.21875 7.46875 41.1875 3.015625 
Q 35.15625 -1.421875 24.609375 -1.421875 
Q 20.21875 -1.421875 15.453125 -0.5625 
Q 10.6875 0.296875 5.421875 2 
L 5.421875 11.28125 
Q 10.40625 8.6875 15.234375 7.390625 
Q 20.0625 6.109375 24.8125 6.109375 
Q 31.15625 6.109375 34.5625 8.28125 
Q 37.984375 10.453125 37.984375 14.40625 
Q 37.984375 18.0625 35.515625 20.015625 
Q 33.0625 21.96875 24.703125 23.78125 
L 21.578125 24.515625 
Q 13.234375 26.265625 9.515625 29.90625 
Q 5.8125 33.546875 5.8125 39.890625 
Q 5.8125 47.609375 11.28125 51.796875 
Q 16.75 56 26.8125 56 
Q 31.78125 56 36.171875 55.265625 
Q 40.578125 54.546875 44.28125 53.078125 
" id="BitstreamVeraSans-Roman-73"/>
      <path d="M 48.78125 52.59375 
L 48.78125 44.1875 
Q 44.96875 46.296875 41.140625 47.34375 
Q 37.3125 48.390625 33.40625 48.390625 
Q 24.65625 48.390625 19.8125 42.84375 
Q 14.984375 37.3125 14.984375 27.296875 
Q 14.984375 17.28125 19.8125 11.734375 
Q 24.65625 6.203125 33.40625 6.203125 
Q 37.3125 6.203125 41.140625 7.25 
Q 44.96875 8.296875 48.78125 10.40625 
L 48.78125 2.09375 
Q 45.015625 0.34375 40.984375 -0.53125 
Q 36.96875 -1.421875 32.421875 -1.421875 
Q 20.0625 -1.421875 12.78125 6.34375 
Q 5.515625 14.109375 5.515625 27.296875 
Q 5.515625 40.671875 12.859375 48.328125 
Q 20.21875 56 33.015625 56 
Q 37.15625 56 41.109375 55.140625 
Q 45.0625 54.296875 48.78125 52.59375 
" id="BitstreamVeraSans-Roman-63"/>
     </defs>
     <g transform="translate(208.246875 237.413125)scale(0.2 -0.2)">
      <use xlink:href="#BitstreamVeraSans-Roman-4d"/>
      <use x="86.279296875" xlink:href="#BitstreamVeraSans-Roman-61"/>
      <use x="147.55859375" xlink:href="#BitstreamVeraSans-Roman-78"/>
      <use x="206.73828125" xlink:href="#BitstreamVeraSans-Roman-69"/>
      <use x="234.521484375" xlink:href="#BitstreamVeraSans-Roman-6d"/>
      <use x="331.93359375" xlink:href="#BitstreamVeraSans-Roman-75"/>
      <use x="395.3125" xlink:href="#BitstreamVeraSans-Roman-6d"/>
      <use x="492.724609375" xlink:href="#BitstreamVeraSans-Roman-20"/>
      <use x="524.51171875" xlink:href="#BitstreamVeraSans-Roman-41"/>
      <use x="592.919921875" xlink:href="#BitstreamVeraSans-Roman-4d"/>
      <use x="679.19921875" xlink:href="#BitstreamVeraSans-Roman-20"/>
      <use x="710.986328125" xlink:href="#BitstreamVeraSans-Roman-72"/>
      <use x="752.099609375" xlink:href="#BitstreamVeraSans-Roman-61"/>
      <use x="813.37890625" xlink:href="#BitstreamVeraSans-Roman-74"/>
      <use x="852.587890625" xlink:href="#BitstreamVeraSans-Roman-65"/>
      <use x="914.111328125" xlink:href="#BitstreamVeraSans-Roman-20"/>
      <use x="945.8984375" xlink:href="#BitstreamVeraSans-Roman-74"/>
      <use x="985.107421875" xlink:href="#BitstreamVeraSans-Roman-6f"/>
      <use x="1046.2890625" xlink:href="#BitstreamVeraSans-Roman-20"/>
      <use x="1078.07617188" xlink:href="#BitstreamVeraSans-Roman-77"/>
      <use x="1159.86328125" xlink:href="#BitstreamVeraSans-Roman-68"/>
      <use x="1223.2421875" xlink:href="#BitstreamVeraSans-Roman-69"/>
      <use x="1251.02539062" xlink:href="#BitstreamVeraSans-Roman-63"/>
      <use x="1306.00585938" xlink:href="#BitstreamVeraSans-Roman-68"/>
      <use x="1369.38476562" xlink:href="#BitstreamVeraSans-Roman-20"/>
      <use x="1401.171875" xlink:href="#BitstreamVeraSans-Roman-72"/>
      <use x="1442.25390625" xlink:href="#BitstreamVeraSans-Roman-65"/>
      <use x="1503.77734375" xlink:href="#BitstreamVeraSans-Roman-73"/>
      <use x="1555.87695312" xlink:href="#BitstreamVeraSans-Roman-70"/>
      <use x="1619.35351562" xlink:href="#BitstreamVeraSans-Roman-6f"/>
      <use x="1680.53515625" xlink:href="#BitstreamVeraSans-Roman-6e"/>
      <use x="1743.9140625" xlink:href="#BitstreamVeraSans-Roman-73"/>
      <use x="1796.01367188" xlink:href="#BitstreamVeraSans-Roman-65"/>
      <use x="1857.53710938" xlink:href="#BitstreamVeraSans-Roman-73"/>
     </g>
     <!-- were synchronized (Hz) -->
     <defs>
      <path d="M 8.015625 75.875 
L 15.828125 75.875 
Q 23.140625 64.359375 26.78125 53.3125 
Q 30.421875 42.28125 30.421875 31.390625 
Q 30.421875 20.453125 26.78125 9.375 
Q 23.140625 -1.703125 15.828125 -13.1875 
L 8.015625 -13.1875 
Q 14.5 -2 17.703125 9.0625 
Q 20.90625 20.125 20.90625 31.390625 
Q 20.90625 42.671875 17.703125 53.65625 
Q 14.5 64.65625 8.015625 75.875 
" id="BitstreamVeraSans-Roman-29"/>
      <path d="M 31 75.875 
Q 24.46875 64.65625 21.28125 53.65625 
Q 18.109375 42.671875 18.109375 31.390625 
Q 18.109375 20.125 21.3125 9.0625 
Q 24.515625 -2 31 -13.1875 
L 23.1875 -13.1875 
Q 15.875 -1.703125 12.234375 9.375 
Q 8.59375 20.453125 8.59375 31.390625 
Q 8.59375 42.28125 12.203125 53.3125 
Q 15.828125 64.359375 23.1875 75.875 
z
" id="BitstreamVeraSans-Roman-28"/>
      <path d="M 5.515625 54.6875 
L 48.1875 54.6875 
L 48.1875 46.484375 
L 14.40625 7.171875 
L 48.1875 7.171875 
L 48.1875 0 
L 4.296875 0 
L 4.296875 8.203125 
L 38.09375 47.515625 
L 5.515625 47.515625 
z
" id="BitstreamVeraSans-Roman-7a"/>
      <path d="M 32.171875 -5.078125 
Q 28.375 -14.84375 24.75 -17.8125 
Q 21.140625 -20.796875 15.09375 -20.796875 
L 7.90625 -20.796875 
L 7.90625 -13.28125 
L 13.1875 -13.28125 
Q 16.890625 -13.28125 18.9375 -11.515625 
Q 21 -9.765625 23.484375 -3.21875 
L 25.09375 0.875 
L 2.984375 54.6875 
L 12.5 54.6875 
L 29.59375 11.921875 
L 46.6875 54.6875 
L 56.203125 54.6875 
z
" id="BitstreamVeraSans-Roman-79"/>
      <path d="M 45.40625 46.390625 
L 45.40625 75.984375 
L 54.390625 75.984375 
L 54.390625 0 
L 45.40625 0 
L 45.40625 8.203125 
Q 42.578125 3.328125 38.25 0.953125 
Q 33.9375 -1.421875 27.875 -1.421875 
Q 17.96875 -1.421875 11.734375 6.484375 
Q 5.515625 14.40625 5.515625 27.296875 
Q 5.515625 40.1875 11.734375 48.09375 
Q 17.96875 56 27.875 56 
Q 33.9375 56 38.25 53.625 
Q 42.578125 51.265625 45.40625 46.390625 
M 14.796875 27.296875 
Q 14.796875 17.390625 18.875 11.75 
Q 22.953125 6.109375 30.078125 6.109375 
Q 37.203125 6.109375 41.296875 11.75 
Q 45.40625 17.390625 45.40625 27.296875 
Q 45.40625 37.203125 41.296875 42.84375 
Q 37.203125 48.484375 30.078125 48.484375 
Q 22.953125 48.484375 18.875 42.84375 
Q 14.796875 37.203125 14.796875 27.296875 
" id="BitstreamVeraSans-Roman-64"/>
      <path d="M 9.8125 72.90625 
L 19.671875 72.90625 
L 19.671875 43.015625 
L 55.515625 43.015625 
L 55.515625 72.90625 
L 65.375 72.90625 
L 65.375 0 
L 55.515625 0 
L 55.515625 34.71875 
L 19.671875 34.71875 
L 19.671875 0 
L 9.8125 0 
z
" id="BitstreamVeraSans-Roman-48"/>
     </defs>
     <g transform="translate(281.2921875 259.80875)scale(0.2 -0.2)">
      <use xlink:href="#BitstreamVeraSans-Roman-77"/>
      <use x="81.787109375" xlink:href="#BitstreamVeraSans-Roman-65"/>
      <use x="143.310546875" xlink:href="#BitstreamVeraSans-Roman-72"/>
      <use x="184.392578125" xlink:href="#BitstreamVeraSans-Roman-65"/>
      <use x="245.916015625" xlink:href="#BitstreamVeraSans-Roman-20"/>
      <use x="277.703125" xlink:href="#BitstreamVeraSans-Roman-73"/>
      <use x="329.802734375" xlink:href="#BitstreamVeraSans-Roman-79"/>
      <use x="388.982421875" xlink:href="#BitstreamVeraSans-Roman-6e"/>
      <use x="452.361328125" xlink:href="#BitstreamVeraSans-Roman-63"/>
      <use x="507.341796875" xlink:href="#BitstreamVeraSans-Roman-68"/>
      <use x="570.720703125" xlink:href="#BitstreamVeraSans-Roman-72"/>
      <use x="611.802734375" xlink:href="#BitstreamVeraSans-Roman-6f"/>
      <use x="672.984375" xlink:href="#BitstreamVeraSans-Roman-6e"/>
      <use x="736.36328125" xlink:href="#BitstreamVeraSans-Roman-69"/>
      <use x="764.146484375" xlink:href="#BitstreamVeraSans-Roman-7a"/>
      <use x="816.63671875" xlink:href="#BitstreamVeraSans-Roman-65"/>
      <use x="878.16015625" xlink:href="#BitstreamVeraSans-Roman-64"/>
      <use x="941.63671875" xlink:href="#BitstreamVeraSans-Roman-20"/>
      <use x="973.423828125" xlink:href="#BitstreamVeraSans-Roman-28"/>
      <use x="1012.4375" xlink:href="#BitstreamVeraSans-Roman-48"/>
      <use x="1087.6328125" xlink:href="#BitstreamVeraSans-Roman-7a"/>
      <use x="1140.12304688" xlink:href="#BitstreamVeraSans-Roman-29"/>
     </g>
    </g>
   </g>
   <g id="matplotlib.axis_2">
    <g id="ytick_1">
     <g id="line2d_13">
      <defs>
       <path d="M 0 0 
L 4 0 
" id="m88b8851c4f" style="stroke:#000000;stroke-width:0.5;"/>
      </defs>
      <g>
       <use style="stroke:#000000;stroke-width:0.5;" x="55.3725" xlink:href="#m88b8851c4f" y="193.86"/>
      </g>
     </g>
     <g id="text_14">
      <!-- 0 -->
      <g transform="translate(38.6475 199.37875)scale(0.2 -0.2)">
       <use xlink:href="#BitstreamVeraSans-Roman-30"/>
      </g>
     </g>
    </g>
    <g id="ytick_2">
     <g id="line2d_14">
      <g>
       <use style="stroke:#000000;stroke-width:0.5;" x="55.3725" xlink:href="#m88b8851c4f" y="150.0975"/>
      </g>
     </g>
     <g id="text_15">
      <!-- 10 -->
      <g transform="translate(25.9225 155.61625)scale(0.2 -0.2)">
       <use xlink:href="#BitstreamVeraSans-Roman-31"/>
       <use x="63.623046875" xlink:href="#BitstreamVeraSans-Roman-30"/>
      </g>
     </g>
    </g>
    <g id="ytick_3">
     <g id="line2d_15">
      <g>
       <use style="stroke:#000000;stroke-width:0.5;" x="55.3725" xlink:href="#m88b8851c4f" y="106.335"/>
      </g>
     </g>
     <g id="text_16">
      <!-- 20 -->
      <g transform="translate(25.9225 111.85375)scale(0.2 -0.2)">
       <use xlink:href="#BitstreamVeraSans-Roman-32"/>
       <use x="63.623046875" xlink:href="#BitstreamVeraSans-Roman-30"/>
      </g>
     </g>
    </g>
    <g id="ytick_4">
     <g id="line2d_16">
      <g>
       <use style="stroke:#000000;stroke-width:0.5;" x="55.3725" xlink:href="#m88b8851c4f" y="62.5725"/>
      </g>
     </g>
     <g id="text_17">
      <!-- 30 -->
      <g transform="translate(25.9225 68.09125)scale(0.2 -0.2)">
       <use xlink:href="#BitstreamVeraSans-Roman-33"/>
       <use x="63.623046875" xlink:href="#BitstreamVeraSans-Roman-30"/>
      </g>
     </g>
    </g>
    <g id="ytick_5">
     <g id="line2d_17">
      <g>
       <use style="stroke:#000000;stroke-width:0.5;" x="55.3725" xlink:href="#m88b8851c4f" y="18.81"/>
      </g>
     </g>
     <g id="text_18">
      <!-- 40 -->
      <g transform="translate(25.9225 24.32875)scale(0.2 -0.2)">
       <use xlink:href="#BitstreamVeraSans-Roman-34"/>
       <use x="63.623046875" xlink:href="#BitstreamVeraSans-Roman-30"/>
      </g>
     </g>
    </g>
    <g id="text_19">
     <!-- % Neurons -->
     <defs>
      <path d="M 9.8125 72.90625 
L 23.09375 72.90625 
L 55.421875 11.921875 
L 55.421875 72.90625 
L 64.984375 72.90625 
L 64.984375 0 
L 51.703125 0 
L 19.390625 60.984375 
L 19.390625 0 
L 9.8125 0 
z
" id="BitstreamVeraSans-Roman-4e"/>
      <path d="M 72.703125 32.078125 
Q 68.453125 32.078125 66.03125 28.46875 
Q 63.625 24.859375 63.625 18.40625 
Q 63.625 12.0625 66.03125 8.421875 
Q 68.453125 4.78125 72.703125 4.78125 
Q 76.859375 4.78125 79.265625 8.421875 
Q 81.6875 12.0625 81.6875 18.40625 
Q 81.6875 24.8125 79.265625 28.4375 
Q 76.859375 32.078125 72.703125 32.078125 
M 72.703125 38.28125 
Q 80.421875 38.28125 84.953125 32.90625 
Q 89.5 27.546875 89.5 18.40625 
Q 89.5 9.28125 84.9375 3.921875 
Q 80.375 -1.421875 72.703125 -1.421875 
Q 64.890625 -1.421875 60.34375 3.921875 
Q 55.8125 9.28125 55.8125 18.40625 
Q 55.8125 27.59375 60.375 32.9375 
Q 64.9375 38.28125 72.703125 38.28125 
M 22.3125 68.015625 
Q 18.109375 68.015625 15.6875 64.375 
Q 13.28125 60.75 13.28125 54.390625 
Q 13.28125 47.953125 15.671875 44.328125 
Q 18.0625 40.71875 22.3125 40.71875 
Q 26.5625 40.71875 28.96875 44.328125 
Q 31.390625 47.953125 31.390625 54.390625 
Q 31.390625 60.6875 28.953125 64.34375 
Q 26.515625 68.015625 22.3125 68.015625 
M 66.40625 74.21875 
L 74.21875 74.21875 
L 28.609375 -1.421875 
L 20.796875 -1.421875 
z
M 22.3125 74.21875 
Q 30.03125 74.21875 34.609375 68.875 
Q 39.203125 63.53125 39.203125 54.390625 
Q 39.203125 45.171875 34.640625 39.84375 
Q 30.078125 34.515625 22.3125 34.515625 
Q 14.546875 34.515625 10.03125 39.859375 
Q 5.515625 45.21875 5.515625 54.390625 
Q 5.515625 63.484375 10.046875 68.84375 
Q 14.59375 74.21875 22.3125 74.21875 
" id="BitstreamVeraSans-Roman-25"/>
     </defs>
     <g transform="translate(16.763125 160.76)rotate(-90.0)scale(0.2 -0.2)">
      <use xlink:href="#BitstreamVeraSans-Roman-25"/>
      <use x="95.01953125" xlink:href="#BitstreamVeraSans-Roman-20"/>
      <use x="126.806640625" xlink:href="#BitstreamVeraSans-Roman-4e"/>
      <use x="201.611328125" xlink:href="#BitstreamVeraSans-Roman-65"/>
      <use x="263.134765625" xlink:href="#BitstreamVeraSans-Roman-75"/>
      <use x="326.513671875" xlink:href="#BitstreamVeraSans-Roman-72"/>
      <use x="367.595703125" xlink:href="#BitstreamVeraSans-Roman-6f"/>
      <use x="428.77734375" xlink:href="#BitstreamVeraSans-Roman-6e"/>
      <use x="492.15625" xlink:href="#BitstreamVeraSans-Roman-73"/>
     </g>
    </g>
   </g>
   <g id="legend_1">
    <g id="patch_53">
     <path d="M 62.8725 118.87875 
L 297.355312 118.87875 
L 297.355312 26.31 
L 62.8725 26.31 
z
" style="fill:#ffffff;stroke:#000000;stroke-linejoin:miter;"/>
    </g>
    <g id="patch_54">
     <path d="M 68.8725 43.707656 
L 98.8725 43.707656 
L 98.8725 33.207656 
L 68.8725 33.207656 
z
" style="fill:#f57900;stroke:#f57900;stroke-linejoin:miter;stroke-width:2.0;"/>
    </g>
    <g id="text_20">
     <!-- Tagged thalamo-striatal -->
     <defs>
      <path d="M 45.40625 27.984375 
Q 45.40625 37.75 41.375 43.109375 
Q 37.359375 48.484375 30.078125 48.484375 
Q 22.859375 48.484375 18.828125 43.109375 
Q 14.796875 37.75 14.796875 27.984375 
Q 14.796875 18.265625 18.828125 12.890625 
Q 22.859375 7.515625 30.078125 7.515625 
Q 37.359375 7.515625 41.375 12.890625 
Q 45.40625 18.265625 45.40625 27.984375 
M 54.390625 6.78125 
Q 54.390625 -7.171875 48.1875 -13.984375 
Q 42 -20.796875 29.203125 -20.796875 
Q 24.46875 -20.796875 20.265625 -20.09375 
Q 16.0625 -19.390625 12.109375 -17.921875 
L 12.109375 -9.1875 
Q 16.0625 -11.328125 19.921875 -12.34375 
Q 23.78125 -13.375 27.78125 -13.375 
Q 36.625 -13.375 41.015625 -8.765625 
Q 45.40625 -4.15625 45.40625 5.171875 
L 45.40625 9.625 
Q 42.625 4.78125 38.28125 2.390625 
Q 33.9375 0 27.875 0 
Q 17.828125 0 11.671875 7.65625 
Q 5.515625 15.328125 5.515625 27.984375 
Q 5.515625 40.671875 11.671875 48.328125 
Q 17.828125 56 27.875 56 
Q 33.9375 56 38.28125 53.609375 
Q 42.625 51.21875 45.40625 46.390625 
L 45.40625 54.6875 
L 54.390625 54.6875 
z
" id="BitstreamVeraSans-Roman-67"/>
      <path d="M -0.296875 72.90625 
L 61.375 72.90625 
L 61.375 64.59375 
L 35.5 64.59375 
L 35.5 0 
L 25.59375 0 
L 25.59375 64.59375 
L -0.296875 64.59375 
z
" id="BitstreamVeraSans-Roman-54"/>
      <path d="M 4.890625 31.390625 
L 31.203125 31.390625 
L 31.203125 23.390625 
L 4.890625 23.390625 
z
" id="BitstreamVeraSans-Roman-2d"/>
      <path d="M 9.421875 75.984375 
L 18.40625 75.984375 
L 18.40625 0 
L 9.421875 0 
z
" id="BitstreamVeraSans-Roman-6c"/>
     </defs>
     <g transform="translate(110.8725 43.70765625)scale(0.15 -0.15)">
      <use xlink:href="#BitstreamVeraSans-Roman-54"/>
      <use x="60.833984375" xlink:href="#BitstreamVeraSans-Roman-61"/>
      <use x="122.11328125" xlink:href="#BitstreamVeraSans-Roman-67"/>
      <use x="185.58984375" xlink:href="#BitstreamVeraSans-Roman-67"/>
      <use x="249.06640625" xlink:href="#BitstreamVeraSans-Roman-65"/>
      <use x="310.58984375" xlink:href="#BitstreamVeraSans-Roman-64"/>
      <use x="374.06640625" xlink:href="#BitstreamVeraSans-Roman-20"/>
      <use x="405.853515625" xlink:href="#BitstreamVeraSans-Roman-74"/>
      <use x="445.0625" xlink:href="#BitstreamVeraSans-Roman-68"/>
      <use x="508.44140625" xlink:href="#BitstreamVeraSans-Roman-61"/>
      <use x="569.720703125" xlink:href="#BitstreamVeraSans-Roman-6c"/>
      <use x="597.50390625" xlink:href="#BitstreamVeraSans-Roman-61"/>
      <use x="658.783203125" xlink:href="#BitstreamVeraSans-Roman-6d"/>
      <use x="756.1953125" xlink:href="#BitstreamVeraSans-Roman-6f"/>
      <use x="817.392578125" xlink:href="#BitstreamVeraSans-Roman-2d"/>
      <use x="853.4765625" xlink:href="#BitstreamVeraSans-Roman-73"/>
      <use x="905.576171875" xlink:href="#BitstreamVeraSans-Roman-74"/>
      <use x="944.78515625" xlink:href="#BitstreamVeraSans-Roman-72"/>
      <use x="985.8984375" xlink:href="#BitstreamVeraSans-Roman-69"/>
      <use x="1013.68164062" xlink:href="#BitstreamVeraSans-Roman-61"/>
      <use x="1074.9609375" xlink:href="#BitstreamVeraSans-Roman-74"/>
      <use x="1114.16992188" xlink:href="#BitstreamVeraSans-Roman-61"/>
      <use x="1175.44921875" xlink:href="#BitstreamVeraSans-Roman-6c"/>
     </g>
    </g>
    <g id="patch_55">
     <path d="M 68.8725 65.724844 
L 98.8725 65.724844 
L 98.8725 55.224844 
L 68.8725 55.224844 
z
" style="fill:#ffffff;stroke:#f57900;stroke-linejoin:miter;stroke-width:2.0;"/>
    </g>
    <g id="text_21">
     <!-- Thalamus, non-tagged -->
     <defs>
      <path d="M 11.71875 12.40625 
L 22.015625 12.40625 
L 22.015625 4 
L 14.015625 -11.625 
L 7.71875 -11.625 
L 11.71875 4 
z
" id="BitstreamVeraSans-Roman-2c"/>
     </defs>
     <g transform="translate(110.8725 65.72484375)scale(0.15 -0.15)">
      <use xlink:href="#BitstreamVeraSans-Roman-54"/>
      <use x="61.083984375" xlink:href="#BitstreamVeraSans-Roman-68"/>
      <use x="124.462890625" xlink:href="#BitstreamVeraSans-Roman-61"/>
      <use x="185.7421875" xlink:href="#BitstreamVeraSans-Roman-6c"/>
      <use x="213.525390625" xlink:href="#BitstreamVeraSans-Roman-61"/>
      <use x="274.8046875" xlink:href="#BitstreamVeraSans-Roman-6d"/>
      <use x="372.216796875" xlink:href="#BitstreamVeraSans-Roman-75"/>
      <use x="435.595703125" xlink:href="#BitstreamVeraSans-Roman-73"/>
      <use x="487.6953125" xlink:href="#BitstreamVeraSans-Roman-2c"/>
      <use x="519.482421875" xlink:href="#BitstreamVeraSans-Roman-20"/>
      <use x="551.26953125" xlink:href="#BitstreamVeraSans-Roman-6e"/>
      <use x="614.6484375" xlink:href="#BitstreamVeraSans-Roman-6f"/>
      <use x="675.830078125" xlink:href="#BitstreamVeraSans-Roman-6e"/>
      <use x="739.208984375" xlink:href="#BitstreamVeraSans-Roman-2d"/>
      <use x="775.29296875" xlink:href="#BitstreamVeraSans-Roman-74"/>
      <use x="814.501953125" xlink:href="#BitstreamVeraSans-Roman-61"/>
      <use x="875.78125" xlink:href="#BitstreamVeraSans-Roman-67"/>
      <use x="939.2578125" xlink:href="#BitstreamVeraSans-Roman-67"/>
      <use x="1002.734375" xlink:href="#BitstreamVeraSans-Roman-65"/>
      <use x="1064.2578125" xlink:href="#BitstreamVeraSans-Roman-64"/>
     </g>
    </g>
    <g id="patch_56">
     <path d="M 68.8725 87.742031 
L 98.8725 87.742031 
L 98.8725 77.242031 
L 68.8725 77.242031 
z
" style="fill:#75507b;stroke:#75507b;stroke-linejoin:miter;stroke-width:2.0;"/>
    </g>
    <g id="text_22">
     <!-- Tagged cortico-striatal -->
     <g transform="translate(110.8725 87.74203125)scale(0.15 -0.15)">
      <use xlink:href="#BitstreamVeraSans-Roman-54"/>
      <use x="60.833984375" xlink:href="#BitstreamVeraSans-Roman-61"/>
      <use x="122.11328125" xlink:href="#BitstreamVeraSans-Roman-67"/>
      <use x="185.58984375" xlink:href="#BitstreamVeraSans-Roman-67"/>
      <use x="249.06640625" xlink:href="#BitstreamVeraSans-Roman-65"/>
      <use x="310.58984375" xlink:href="#BitstreamVeraSans-Roman-64"/>
      <use x="374.06640625" xlink:href="#BitstreamVeraSans-Roman-20"/>
      <use x="405.853515625" xlink:href="#BitstreamVeraSans-Roman-63"/>
      <use x="460.833984375" xlink:href="#BitstreamVeraSans-Roman-6f"/>
      <use x="522.015625" xlink:href="#BitstreamVeraSans-Roman-72"/>
      <use x="563.12890625" xlink:href="#BitstreamVeraSans-Roman-74"/>
      <use x="602.337890625" xlink:href="#BitstreamVeraSans-Roman-69"/>
      <use x="630.12109375" xlink:href="#BitstreamVeraSans-Roman-63"/>
      <use x="685.1015625" xlink:href="#BitstreamVeraSans-Roman-6f"/>
      <use x="746.298828125" xlink:href="#BitstreamVeraSans-Roman-2d"/>
      <use x="782.3828125" xlink:href="#BitstreamVeraSans-Roman-73"/>
      <use x="834.482421875" xlink:href="#BitstreamVeraSans-Roman-74"/>
      <use x="873.69140625" xlink:href="#BitstreamVeraSans-Roman-72"/>
      <use x="914.8046875" xlink:href="#BitstreamVeraSans-Roman-69"/>
      <use x="942.587890625" xlink:href="#BitstreamVeraSans-Roman-61"/>
      <use x="1003.8671875" xlink:href="#BitstreamVeraSans-Roman-74"/>
      <use x="1043.07617188" xlink:href="#BitstreamVeraSans-Roman-61"/>
      <use x="1104.35546875" xlink:href="#BitstreamVeraSans-Roman-6c"/>
     </g>
    </g>
    <g id="patch_57">
     <path d="M 68.8725 109.759219 
L 98.8725 109.759219 
L 98.8725 99.259219 
L 68.8725 99.259219 
z
" style="fill:#ffffff;stroke:#75507b;stroke-linejoin:miter;stroke-width:2.0;"/>
    </g>
    <g id="text_23">
     <!-- Cortex, non-tagged -->
     <defs>
      <path d="M 64.40625 67.28125 
L 64.40625 56.890625 
Q 59.421875 61.53125 53.78125 63.8125 
Q 48.140625 66.109375 41.796875 66.109375 
Q 29.296875 66.109375 22.65625 58.46875 
Q 16.015625 50.828125 16.015625 36.375 
Q 16.015625 21.96875 22.65625 14.328125 
Q 29.296875 6.6875 41.796875 6.6875 
Q 48.140625 6.6875 53.78125 8.984375 
Q 59.421875 11.28125 64.40625 15.921875 
L 64.40625 5.609375 
Q 59.234375 2.09375 53.4375 0.328125 
Q 47.65625 -1.421875 41.21875 -1.421875 
Q 24.65625 -1.421875 15.125 8.703125 
Q 5.609375 18.84375 5.609375 36.375 
Q 5.609375 53.953125 15.125 64.078125 
Q 24.65625 74.21875 41.21875 74.21875 
Q 47.75 74.21875 53.53125 72.484375 
Q 59.328125 70.75 64.40625 67.28125 
" id="BitstreamVeraSans-Roman-43"/>
     </defs>
     <g transform="translate(110.8725 109.75921875)scale(0.15 -0.15)">
      <use xlink:href="#BitstreamVeraSans-Roman-43"/>
      <use x="69.82421875" xlink:href="#BitstreamVeraSans-Roman-6f"/>
      <use x="131.005859375" xlink:href="#BitstreamVeraSans-Roman-72"/>
      <use x="172.119140625" xlink:href="#BitstreamVeraSans-Roman-74"/>
      <use x="211.328125" xlink:href="#BitstreamVeraSans-Roman-65"/>
      <use x="272.8359375" xlink:href="#BitstreamVeraSans-Roman-78"/>
      <use x="332.015625" xlink:href="#BitstreamVeraSans-Roman-2c"/>
      <use x="363.802734375" xlink:href="#BitstreamVeraSans-Roman-20"/>
      <use x="395.58984375" xlink:href="#BitstreamVeraSans-Roman-6e"/>
      <use x="458.96875" xlink:href="#BitstreamVeraSans-Roman-6f"/>
      <use x="520.150390625" xlink:href="#BitstreamVeraSans-Roman-6e"/>
      <use x="583.529296875" xlink:href="#BitstreamVeraSans-Roman-2d"/>
      <use x="619.61328125" xlink:href="#BitstreamVeraSans-Roman-74"/>
      <use x="658.822265625" xlink:href="#BitstreamVeraSans-Roman-61"/>
      <use x="720.1015625" xlink:href="#BitstreamVeraSans-Roman-67"/>
      <use x="783.578125" xlink:href="#BitstreamVeraSans-Roman-67"/>
      <use x="847.0546875" xlink:href="#BitstreamVeraSans-Roman-65"/>
      <use x="908.578125" xlink:href="#BitstreamVeraSans-Roman-64"/>
     </g>
    </g>
   </g>
  </g>
 </g>
 <defs>
  <clipPath id="pf7129816c9">
   <rect height="175.05" width="687.6675" x="55.3725" y="18.81"/>
  </clipPath>
 </defs>
</svg>
