<?xml version="1.0" encoding="utf-8" standalone="no"?>
<!DOCTYPE svg PUBLIC "-//W3C//DTD SVG 1.1//EN"
  "http://www.w3.org/Graphics/SVG/1.1/DTD/svg11.dtd">
<!-- Created with matplotlib (http://matplotlib.org/) -->
<svg height="378pt" version="1.1" viewBox="0 0 192 378" width="192pt" xmlns="http://www.w3.org/2000/svg" xmlns:xlink="http://www.w3.org/1999/xlink">
 <defs>
  <style type="text/css">
*{stroke-linecap:butt;stroke-linejoin:round;stroke-miterlimit:100000;}
  </style>
 </defs>
 <g id="figure_1">
  <g id="patch_1">
   <path d="M 0 378.9 
L 192.6 378.9 
L 192.6 0 
L 0 0 
z
" style="fill:#ffffff;"/>
  </g>
  <g id="axes_1">
   <g id="patch_2">
    <path d="M 41.4225 350.24 
L 179.64 350.24 
L 179.64 18.81 
L 41.4225 18.81 
z
" style="fill:#ffffff;"/>
   </g>
   <g id="line2d_1">
    <defs>
     <path d="M 0 5 
C 1.326016 5 2.597899 4.473168 3.535534 3.535534 
C 4.473168 2.597899 5 1.326016 5 0 
C 5 -1.326016 4.473168 -2.597899 3.535534 -3.535534 
C 2.597899 -4.473168 1.326016 -5 0 -5 
C -1.326016 -5 -2.597899 -4.473168 -3.535534 -3.535534 
C -4.473168 -2.597899 -5 -1.326016 -5 0 
C -5 1.326016 -4.473168 2.597899 -3.535534 3.535534 
C -2.597899 4.473168 -1.326016 5 0 5 
z
" id="mc7025c196a" style="stroke:#f57900;stroke-width:0.5;"/>
    </defs>
    <g clip-path="url(#pbb7a2b4ba5)">
     <use style="fill:#ffffff;stroke:#f57900;stroke-width:0.5;" x="72.5367674986" xlink:href="#mc7025c196a" y="100.355318128"/>
     <use style="fill:#ffffff;stroke:#f57900;stroke-width:0.5;" x="73.6756664697" xlink:href="#mc7025c196a" y="45.116984796"/>
     <use style="fill:#ffffff;stroke:#f57900;stroke-width:0.5;" x="76.5372283495" xlink:href="#mc7025c196a" y="249.871215318"/>
     <use style="fill:#ffffff;stroke:#f57900;stroke-width:0.5;" x="81.0534503215" xlink:href="#mc7025c196a" y="282.898718391"/>
     <use style="fill:#ffffff;stroke:#f57900;stroke-width:0.5;" x="73.0110608318" xlink:href="#mc7025c196a" y="249.871215318"/>
     <use style="fill:#ffffff;stroke:#f57900;stroke-width:0.5;" x="64.8471350513" xlink:href="#mc7025c196a" y="227.684163503"/>
     <use style="fill:#ffffff;stroke:#f57900;stroke-width:0.5;" x="86.5774552656" xlink:href="#mc7025c196a" y="249.871215318"/>
     <use style="fill:#ffffff;stroke:#f57900;stroke-width:0.5;" x="70.530056813" xlink:href="#mc7025c196a" y="297.184142045"/>
     <use style="fill:#ffffff;stroke:#f57900;stroke-width:0.5;" x="78.8921882097" xlink:href="#mc7025c196a" y="45.1169847945"/>
     <use style="fill:#ffffff;stroke:#f57900;stroke-width:0.5;" x="79.1077565762" xlink:href="#mc7025c196a" y="268.012571178"/>
     <use style="fill:#ffffff;stroke:#f57900;stroke-width:0.5;" x="89.6575369906" xlink:href="#mc7025c196a" y="227.684163503"/>
     <use style="fill:#ffffff;stroke:#f57900;stroke-width:0.5;" x="84.5164354925" xlink:href="#mc7025c196a" y="212.862504178"/>
     <use style="fill:#ffffff;stroke:#f57900;stroke-width:0.5;" x="72.4770576761" xlink:href="#mc7025c196a" y="306.789176805"/>
     <use style="fill:#ffffff;stroke:#f57900;stroke-width:0.5;" x="81.6507266654" xlink:href="#mc7025c196a" y="45.1169847945"/>
     <use style="fill:#ffffff;stroke:#f57900;stroke-width:0.5;" x="61.488812422" xlink:href="#mc7025c196a" y="249.871215318"/>
     <use style="fill:#ffffff;stroke:#f57900;stroke-width:0.5;" x="68.8221434227" xlink:href="#mc7025c196a" y="212.862504179"/>
     <use style="fill:#ffffff;stroke:#f57900;stroke-width:0.5;" x="73.5246993937" xlink:href="#mc7025c196a" y="249.835762226"/>
     <use style="fill:#ffffff;stroke:#f57900;stroke-width:0.5;" x="81.0713527438" xlink:href="#mc7025c196a" y="212.862504178"/>
     <use style="fill:#ffffff;stroke:#f57900;stroke-width:0.5;" x="75.9059312886" xlink:href="#mc7025c196a" y="237.73281395"/>
     <use style="fill:#ffffff;stroke:#f57900;stroke-width:0.5;" x="74.6298531412" xlink:href="#mc7025c196a" y="321.09746393"/>
     <use style="fill:#ffffff;stroke:#f57900;stroke-width:0.5;" x="77.3609058253" xlink:href="#mc7025c196a" y="227.684163503"/>
     <use style="fill:#ffffff;stroke:#f57900;stroke-width:0.5;" x="57.765129827" xlink:href="#mc7025c196a" y="212.862504179"/>
     <use style="fill:#ffffff;stroke:#f57900;stroke-width:0.5;" x="73.6696118128" xlink:href="#mc7025c196a" y="45.116984796"/>
     <use style="fill:#ffffff;stroke:#f57900;stroke-width:0.5;" x="88.5605167439" xlink:href="#mc7025c196a" y="45.116984796"/>
     <use style="fill:#ffffff;stroke:#f57900;stroke-width:0.5;" x="81.4077227365" xlink:href="#mc7025c196a" y="45.116984796"/>
     <use style="fill:#ffffff;stroke:#f57900;stroke-width:0.5;" x="71.7265801866" xlink:href="#mc7025c196a" y="45.1169847954"/>
     <use style="fill:#ffffff;stroke:#f57900;stroke-width:0.5;" x="75.539270887" xlink:href="#mc7025c196a" y="45.116984796"/>
     <use style="fill:#ffffff;stroke:#f57900;stroke-width:0.5;" x="83.7196259021" xlink:href="#mc7025c196a" y="249.871215318"/>
     <use style="fill:#ffffff;stroke:#f57900;stroke-width:0.5;" x="76.1554540685" xlink:href="#mc7025c196a" y="45.116984796"/>
     <use style="fill:#ffffff;stroke:#f57900;stroke-width:0.5;" x="69.4991800392" xlink:href="#mc7025c196a" y="45.116984796"/>
     <use style="fill:#ffffff;stroke:#f57900;stroke-width:0.5;" x="63.1807134952" xlink:href="#mc7025c196a" y="249.835762226"/>
     <use style="fill:#ffffff;stroke:#f57900;stroke-width:0.5;" x="70.7944125094" xlink:href="#mc7025c196a" y="249.871215318"/>
     <use style="fill:#ffffff;stroke:#f57900;stroke-width:0.5;" x="79.7178681658" xlink:href="#mc7025c196a" y="227.684163503"/>
     <use style="fill:#ffffff;stroke:#f57900;stroke-width:0.5;" x="66.5754958146" xlink:href="#mc7025c196a" y="268.012571178"/>
     <use style="fill:#ffffff;stroke:#f57900;stroke-width:0.5;" x="71.5765439259" xlink:href="#mc7025c196a" y="45.116984796"/>
     <use style="fill:#ffffff;stroke:#f57900;stroke-width:0.5;" x="79.1163614719" xlink:href="#mc7025c196a" y="212.862504179"/>
     <use style="fill:#ffffff;stroke:#f57900;stroke-width:0.5;" x="74.2827136788" xlink:href="#mc7025c196a" y="45.1169847954"/>
     <use style="fill:#ffffff;stroke:#f57900;stroke-width:0.5;" x="63.6403960916" xlink:href="#mc7025c196a" y="285.455863444"/>
     <use style="fill:#ffffff;stroke:#f57900;stroke-width:0.5;" x="66.348562833" xlink:href="#mc7025c196a" y="285.455863444"/>
     <use style="fill:#ffffff;stroke:#f57900;stroke-width:0.5;" x="83.8380924152" xlink:href="#mc7025c196a" y="182.494480617"/>
     <use style="fill:#ffffff;stroke:#f57900;stroke-width:0.5;" x="71.5736106222" xlink:href="#mc7025c196a" y="182.494480617"/>
     <use style="fill:#ffffff;stroke:#f57900;stroke-width:0.5;" x="76.8557672644" xlink:href="#mc7025c196a" y="45.116984796"/>
     <use style="fill:#ffffff;stroke:#f57900;stroke-width:0.5;" x="65.7501388802" xlink:href="#mc7025c196a" y="237.732813951"/>
     <use style="fill:#ffffff;stroke:#f57900;stroke-width:0.5;" x="78.5215324565" xlink:href="#mc7025c196a" y="100.355318129"/>
     <use style="fill:#ffffff;stroke:#f57900;stroke-width:0.5;" x="77.2059843932" xlink:href="#mc7025c196a" y="212.862504179"/>
     <use style="fill:#ffffff;stroke:#f57900;stroke-width:0.5;" x="94.1510634726" xlink:href="#mc7025c196a" y="262.78178465"/>
     <use style="fill:#ffffff;stroke:#f57900;stroke-width:0.5;" x="71.5561050738" xlink:href="#mc7025c196a" y="282.898718391"/>
     <use style="fill:#ffffff;stroke:#f57900;stroke-width:0.5;" x="82.5707585985" xlink:href="#mc7025c196a" y="262.78178465"/>
     <use style="fill:#ffffff;stroke:#f57900;stroke-width:0.5;" x="76.4257010085" xlink:href="#mc7025c196a" y="302.200927715"/>
     <use style="fill:#ffffff;stroke:#f57900;stroke-width:0.5;" x="78.6810759867" xlink:href="#mc7025c196a" y="285.455863444"/>
     <use style="fill:#ffffff;stroke:#f57900;stroke-width:0.5;" x="77.3259540844" xlink:href="#mc7025c196a" y="182.494480617"/>
     <use style="fill:#ffffff;stroke:#f57900;stroke-width:0.5;" x="68.3175613081" xlink:href="#mc7025c196a" y="100.355318129"/>
     <use style="fill:#ffffff;stroke:#f57900;stroke-width:0.5;" x="76.5147437749" xlink:href="#mc7025c196a" y="237.73281395"/>
     <use style="fill:#ffffff;stroke:#f57900;stroke-width:0.5;" x="59.0979410791" xlink:href="#mc7025c196a" y="100.355318128"/>
    </g>
   </g>
   <g id="line2d_2">
    <defs>
     <path d="M 0 5 
C 1.326016 5 2.597899 4.473168 3.535534 3.535534 
C 4.473168 2.597899 5 1.326016 5 0 
C 5 -1.326016 4.473168 -2.597899 3.535534 -3.535534 
C 2.597899 -4.473168 1.326016 -5 0 -5 
C -1.326016 -5 -2.597899 -4.473168 -3.535534 -3.535534 
C -4.473168 -2.597899 -5 -1.326016 -5 0 
C -5 1.326016 -4.473168 2.597899 -3.535534 3.535534 
C -2.597899 4.473168 -1.326016 5 0 5 
z
" id="macefeec0c6" style="stroke:#f57900;stroke-width:0.5;"/>
    </defs>
    <g clip-path="url(#pbb7a2b4ba5)">
     <use style="fill:#f57900;stroke:#f57900;stroke-width:0.5;" x="73.9019477882" xlink:href="#macefeec0c6" y="45.1169847945"/>
     <use style="fill:#f57900;stroke:#f57900;stroke-width:0.5;" x="70.4675617264" xlink:href="#macefeec0c6" y="212.862504178"/>
     <use style="fill:#f57900;stroke:#f57900;stroke-width:0.5;" x="79.5547220796" xlink:href="#macefeec0c6" y="212.862504178"/>
     <use style="fill:#f57900;stroke:#f57900;stroke-width:0.5;" x="76.7402353375" xlink:href="#macefeec0c6" y="249.835762226"/>
     <use style="fill:#f57900;stroke:#f57900;stroke-width:0.5;" x="79.0967098763" xlink:href="#macefeec0c6" y="182.494480617"/>
     <use style="fill:#f57900;stroke:#f57900;stroke-width:0.5;" x="81.3206666655" xlink:href="#macefeec0c6" y="268.041605974"/>
     <use style="fill:#f57900;stroke:#f57900;stroke-width:0.5;" x="90.7850894549" xlink:href="#macefeec0c6" y="268.041605974"/>
     <use style="fill:#f57900;stroke:#f57900;stroke-width:0.5;" x="78.4548207451" xlink:href="#macefeec0c6" y="212.862504179"/>
     <use style="fill:#f57900;stroke:#f57900;stroke-width:0.5;" x="86.7600412102" xlink:href="#macefeec0c6" y="45.116984796"/>
     <use style="fill:#f57900;stroke:#f57900;stroke-width:0.5;" x="88.3531164615" xlink:href="#macefeec0c6" y="182.494480617"/>
     <use style="fill:#f57900;stroke:#f57900;stroke-width:0.5;" x="81.975136689" xlink:href="#macefeec0c6" y="45.116984796"/>
     <use style="fill:#f57900;stroke:#f57900;stroke-width:0.5;" x="85.7519016139" xlink:href="#macefeec0c6" y="45.116984796"/>
     <use style="fill:#f57900;stroke:#f57900;stroke-width:0.5;" x="72.5930264436" xlink:href="#macefeec0c6" y="212.862504179"/>
     <use style="fill:#f57900;stroke:#f57900;stroke-width:0.5;" x="85.7345763832" xlink:href="#macefeec0c6" y="268.012571178"/>
     <use style="fill:#f57900;stroke:#f57900;stroke-width:0.5;" x="77.5467913938" xlink:href="#macefeec0c6" y="182.494480617"/>
     <use style="fill:#f57900;stroke:#f57900;stroke-width:0.5;" x="77.5554451453" xlink:href="#macefeec0c6" y="268.012571178"/>
     <use style="fill:#f57900;stroke:#f57900;stroke-width:0.5;" x="87.0285056021" xlink:href="#macefeec0c6" y="45.1169847954"/>
     <use style="fill:#f57900;stroke:#f57900;stroke-width:0.5;" x="73.4517838861" xlink:href="#macefeec0c6" y="212.862504179"/>
     <use style="fill:#f57900;stroke:#f57900;stroke-width:0.5;" x="75.3448388802" xlink:href="#macefeec0c6" y="212.862504179"/>
     <use style="fill:#f57900;stroke:#f57900;stroke-width:0.5;" x="71.4604181344" xlink:href="#macefeec0c6" y="100.355318128"/>
     <use style="fill:#f57900;stroke:#f57900;stroke-width:0.5;" x="74.2929406646" xlink:href="#macefeec0c6" y="278.614893959"/>
     <use style="fill:#f57900;stroke:#f57900;stroke-width:0.5;" x="72.8650514603" xlink:href="#macefeec0c6" y="262.78178465"/>
     <use style="fill:#f57900;stroke:#f57900;stroke-width:0.5;" x="79.9849084046" xlink:href="#macefeec0c6" y="278.614893959"/>
     <use style="fill:#f57900;stroke:#f57900;stroke-width:0.5;" x="76.4524358815" xlink:href="#macefeec0c6" y="249.871215318"/>
     <use style="fill:#f57900;stroke:#f57900;stroke-width:0.5;" x="70.2110411047" xlink:href="#macefeec0c6" y="282.898718391"/>
     <use style="fill:#f57900;stroke:#f57900;stroke-width:0.5;" x="83.3166236623" xlink:href="#macefeec0c6" y="182.494480617"/>
     <use style="fill:#f57900;stroke:#f57900;stroke-width:0.5;" x="89.6597030367" xlink:href="#macefeec0c6" y="249.871215318"/>
     <use style="fill:#f57900;stroke:#f57900;stroke-width:0.5;" x="78.1076294246" xlink:href="#macefeec0c6" y="45.1169847968"/>
     <use style="fill:#f57900;stroke:#f57900;stroke-width:0.5;" x="65.9119399632" xlink:href="#macefeec0c6" y="45.1169847968"/>
     <use style="fill:#f57900;stroke:#f57900;stroke-width:0.5;" x="66.4187145964" xlink:href="#macefeec0c6" y="212.862504178"/>
     <use style="fill:#f57900;stroke:#f57900;stroke-width:0.5;" x="71.1277396843" xlink:href="#macefeec0c6" y="227.684163503"/>
    </g>
   </g>
   <g id="line2d_3">
    <defs>
     <path d="M 0 5 
C 1.326016 5 2.597899 4.473168 3.535534 3.535534 
C 4.473168 2.597899 5 1.326016 5 0 
C 5 -1.326016 4.473168 -2.597899 3.535534 -3.535534 
C 2.597899 -4.473168 1.326016 -5 0 -5 
C -1.326016 -5 -2.597899 -4.473168 -3.535534 -3.535534 
C -4.473168 -2.597899 -5 -1.326016 -5 0 
C -5 1.326016 -4.473168 2.597899 -3.535534 3.535534 
C -2.597899 4.473168 -1.326016 5 0 5 
z
" id="m51b7ac79d2" style="stroke:#75507b;stroke-width:0.5;"/>
    </defs>
    <g clip-path="url(#pbb7a2b4ba5)">
     <use style="fill:#ffffff;stroke:#75507b;stroke-width:0.5;" x="141.258140997" xlink:href="#m51b7ac79d2" y="182.494480617"/>
     <use style="fill:#ffffff;stroke:#75507b;stroke-width:0.5;" x="144.851474598" xlink:href="#m51b7ac79d2" y="212.862504178"/>
     <use style="fill:#ffffff;stroke:#75507b;stroke-width:0.5;" x="139.07803692" xlink:href="#m51b7ac79d2" y="100.355318129"/>
     <use style="fill:#ffffff;stroke:#75507b;stroke-width:0.5;" x="133.858779916" xlink:href="#m51b7ac79d2" y="268.041605974"/>
     <use style="fill:#ffffff;stroke:#75507b;stroke-width:0.5;" x="142.032396892" xlink:href="#m51b7ac79d2" y="295.089933"/>
     <use style="fill:#ffffff;stroke:#75507b;stroke-width:0.5;" x="141.557076637" xlink:href="#m51b7ac79d2" y="268.012571178"/>
     <use style="fill:#ffffff;stroke:#75507b;stroke-width:0.5;" x="150.732856108" xlink:href="#m51b7ac79d2" y="268.012571178"/>
     <use style="fill:#ffffff;stroke:#75507b;stroke-width:0.5;" x="151.770533511" xlink:href="#m51b7ac79d2" y="249.871215318"/>
     <use style="fill:#ffffff;stroke:#75507b;stroke-width:0.5;" x="139.771467115" xlink:href="#m51b7ac79d2" y="262.78178465"/>
     <use style="fill:#ffffff;stroke:#75507b;stroke-width:0.5;" x="147.610151118" xlink:href="#m51b7ac79d2" y="45.116984796"/>
     <use style="fill:#ffffff;stroke:#75507b;stroke-width:0.5;" x="129.757941262" xlink:href="#m51b7ac79d2" y="182.494480617"/>
     <use style="fill:#ffffff;stroke:#75507b;stroke-width:0.5;" x="139.438537912" xlink:href="#m51b7ac79d2" y="268.012571178"/>
     <use style="fill:#ffffff;stroke:#75507b;stroke-width:0.5;" x="141.424206768" xlink:href="#m51b7ac79d2" y="291.581636175"/>
     <use style="fill:#ffffff;stroke:#75507b;stroke-width:0.5;" x="137.759731634" xlink:href="#m51b7ac79d2" y="268.041605974"/>
     <use style="fill:#ffffff;stroke:#75507b;stroke-width:0.5;" x="145.978356173" xlink:href="#m51b7ac79d2" y="212.862504179"/>
     <use style="fill:#ffffff;stroke:#75507b;stroke-width:0.5;" x="155.250662776" xlink:href="#m51b7ac79d2" y="282.898718391"/>
     <use style="fill:#ffffff;stroke:#75507b;stroke-width:0.5;" x="149.267278928" xlink:href="#m51b7ac79d2" y="249.871215318"/>
     <use style="fill:#ffffff;stroke:#75507b;stroke-width:0.5;" x="147.214108208" xlink:href="#m51b7ac79d2" y="212.862504178"/>
     <use style="fill:#ffffff;stroke:#75507b;stroke-width:0.5;" x="138.75902377" xlink:href="#m51b7ac79d2" y="291.581636175"/>
     <use style="fill:#ffffff;stroke:#75507b;stroke-width:0.5;" x="140.884503543" xlink:href="#m51b7ac79d2" y="212.862504179"/>
     <use style="fill:#ffffff;stroke:#75507b;stroke-width:0.5;" x="147.881779519" xlink:href="#m51b7ac79d2" y="45.116984796"/>
     <use style="fill:#ffffff;stroke:#75507b;stroke-width:0.5;" x="139.633472666" xlink:href="#m51b7ac79d2" y="182.494480617"/>
     <use style="fill:#ffffff;stroke:#75507b;stroke-width:0.5;" x="139.019630214" xlink:href="#m51b7ac79d2" y="249.835762226"/>
     <use style="fill:#ffffff;stroke:#75507b;stroke-width:0.5;" x="142.410833429" xlink:href="#m51b7ac79d2" y="182.494480617"/>
     <use style="fill:#ffffff;stroke:#75507b;stroke-width:0.5;" x="149.978557259" xlink:href="#m51b7ac79d2" y="268.012571178"/>
     <use style="fill:#ffffff;stroke:#75507b;stroke-width:0.5;" x="143.653950803" xlink:href="#m51b7ac79d2" y="227.684163503"/>
     <use style="fill:#ffffff;stroke:#75507b;stroke-width:0.5;" x="145.234716349" xlink:href="#m51b7ac79d2" y="182.494480617"/>
     <use style="fill:#ffffff;stroke:#75507b;stroke-width:0.5;" x="146.362194004" xlink:href="#m51b7ac79d2" y="182.494480617"/>
    </g>
   </g>
   <g id="line2d_4">
    <defs>
     <path d="M 0 5 
C 1.326016 5 2.597899 4.473168 3.535534 3.535534 
C 4.473168 2.597899 5 1.326016 5 0 
C 5 -1.326016 4.473168 -2.597899 3.535534 -3.535534 
C 2.597899 -4.473168 1.326016 -5 0 -5 
C -1.326016 -5 -2.597899 -4.473168 -3.535534 -3.535534 
C -4.473168 -2.597899 -5 -1.326016 -5 0 
C -5 1.326016 -4.473168 2.597899 -3.535534 3.535534 
C -2.597899 4.473168 -1.326016 5 0 5 
z
" id="m7f7eb84cde" style="stroke:#75507b;stroke-width:0.5;"/>
    </defs>
    <g clip-path="url(#pbb7a2b4ba5)">
     <use style="fill:#75507b;stroke:#75507b;stroke-width:0.5;" x="152.159626794" xlink:href="#m7f7eb84cde" y="227.684163503"/>
     <use style="fill:#75507b;stroke:#75507b;stroke-width:0.5;" x="153.397993713" xlink:href="#m7f7eb84cde" y="45.116984796"/>
     <use style="fill:#75507b;stroke:#75507b;stroke-width:0.5;" x="140.079788361" xlink:href="#m7f7eb84cde" y="45.116984796"/>
     <use style="fill:#75507b;stroke:#75507b;stroke-width:0.5;" x="145.146234848" xlink:href="#m7f7eb84cde" y="268.041605974"/>
     <use style="fill:#75507b;stroke:#75507b;stroke-width:0.5;" x="140.288604452" xlink:href="#m7f7eb84cde" y="249.871215318"/>
     <use style="fill:#75507b;stroke:#75507b;stroke-width:0.5;" x="147.72114397" xlink:href="#m7f7eb84cde" y="268.012571178"/>
     <use style="fill:#75507b;stroke:#75507b;stroke-width:0.5;" x="143.675444708" xlink:href="#m7f7eb84cde" y="249.871215318"/>
     <use style="fill:#75507b;stroke:#75507b;stroke-width:0.5;" x="150.194375596" xlink:href="#m7f7eb84cde" y="100.355318129"/>
    </g>
   </g>
   <g id="patch_3">
    <path d="M 41.4225 18.81 
L 179.64 18.81 
" style="fill:none;stroke:#000000;stroke-linecap:square;stroke-linejoin:miter;"/>
   </g>
   <g id="patch_4">
    <path d="M 179.64 350.24 
L 179.64 18.81 
" style="fill:none;stroke:#000000;stroke-linecap:square;stroke-linejoin:miter;"/>
   </g>
   <g id="patch_5">
    <path d="M 41.4225 350.24 
L 179.64 350.24 
" style="fill:none;stroke:#000000;stroke-linecap:square;stroke-linejoin:miter;"/>
   </g>
   <g id="patch_6">
    <path d="M 41.4225 350.24 
L 41.4225 18.81 
" style="fill:none;stroke:#000000;stroke-linecap:square;stroke-linejoin:miter;"/>
   </g>
   <g id="matplotlib.axis_1">
    <g id="xtick_1">
     <g id="line2d_5">
      <defs>
       <path d="M 0 0 
L 0 -4 
" id="mce4a6c929a" style="stroke:#000000;stroke-width:0.5;"/>
      </defs>
      <g>
       <use style="stroke:#000000;stroke-width:0.5;" x="75.976875" xlink:href="#mce4a6c929a" y="350.24"/>
      </g>
     </g>
     <g id="line2d_6">
      <defs>
       <path d="M 0 0 
L 0 4 
" id="m06309de240" style="stroke:#000000;stroke-width:0.5;"/>
      </defs>
      <g>
       <use style="stroke:#000000;stroke-width:0.5;" x="75.976875" xlink:href="#m06309de240" y="18.81"/>
      </g>
     </g>
     <g id="text_1">
      <!-- Thalamus -->
      <defs>
       <path d="M 52 44.1875 
Q 55.375 50.25 60.0625 53.125 
Q 64.75 56 71.09375 56 
Q 79.640625 56 84.28125 50.015625 
Q 88.921875 44.046875 88.921875 33.015625 
L 88.921875 0 
L 79.890625 0 
L 79.890625 32.71875 
Q 79.890625 40.578125 77.09375 44.375 
Q 74.3125 48.1875 68.609375 48.1875 
Q 61.625 48.1875 57.5625 43.546875 
Q 53.515625 38.921875 53.515625 30.90625 
L 53.515625 0 
L 44.484375 0 
L 44.484375 32.71875 
Q 44.484375 40.625 41.703125 44.40625 
Q 38.921875 48.1875 33.109375 48.1875 
Q 26.21875 48.1875 22.15625 43.53125 
Q 18.109375 38.875 18.109375 30.90625 
L 18.109375 0 
L 9.078125 0 
L 9.078125 54.6875 
L 18.109375 54.6875 
L 18.109375 46.1875 
Q 21.1875 51.21875 25.484375 53.609375 
Q 29.78125 56 35.6875 56 
Q 41.65625 56 45.828125 52.96875 
Q 50 49.953125 52 44.1875 
" id="BitstreamVeraSans-Roman-6d"/>
       <path d="M 9.421875 75.984375 
L 18.40625 75.984375 
L 18.40625 0 
L 9.421875 0 
z
" id="BitstreamVeraSans-Roman-6c"/>
       <path d="M -0.296875 72.90625 
L 61.375 72.90625 
L 61.375 64.59375 
L 35.5 64.59375 
L 35.5 0 
L 25.59375 0 
L 25.59375 64.59375 
L -0.296875 64.59375 
z
" id="BitstreamVeraSans-Roman-54"/>
       <path d="M 54.890625 33.015625 
L 54.890625 0 
L 45.90625 0 
L 45.90625 32.71875 
Q 45.90625 40.484375 42.875 44.328125 
Q 39.84375 48.1875 33.796875 48.1875 
Q 26.515625 48.1875 22.3125 43.546875 
Q 18.109375 38.921875 18.109375 30.90625 
L 18.109375 0 
L 9.078125 0 
L 9.078125 75.984375 
L 18.109375 75.984375 
L 18.109375 46.1875 
Q 21.34375 51.125 25.703125 53.5625 
Q 30.078125 56 35.796875 56 
Q 45.21875 56 50.046875 50.171875 
Q 54.890625 44.34375 54.890625 33.015625 
" id="BitstreamVeraSans-Roman-68"/>
       <path d="M 8.5 21.578125 
L 8.5 54.6875 
L 17.484375 54.6875 
L 17.484375 21.921875 
Q 17.484375 14.15625 20.5 10.265625 
Q 23.53125 6.390625 29.59375 6.390625 
Q 36.859375 6.390625 41.078125 11.03125 
Q 45.3125 15.671875 45.3125 23.6875 
L 45.3125 54.6875 
L 54.296875 54.6875 
L 54.296875 0 
L 45.3125 0 
L 45.3125 8.40625 
Q 42.046875 3.421875 37.71875 1 
Q 33.40625 -1.421875 27.6875 -1.421875 
Q 18.265625 -1.421875 13.375 4.4375 
Q 8.5 10.296875 8.5 21.578125 
" id="BitstreamVeraSans-Roman-75"/>
       <path d="M 34.28125 27.484375 
Q 23.390625 27.484375 19.1875 25 
Q 14.984375 22.515625 14.984375 16.5 
Q 14.984375 11.71875 18.140625 8.90625 
Q 21.296875 6.109375 26.703125 6.109375 
Q 34.1875 6.109375 38.703125 11.40625 
Q 43.21875 16.703125 43.21875 25.484375 
L 43.21875 27.484375 
z
M 52.203125 31.203125 
L 52.203125 0 
L 43.21875 0 
L 43.21875 8.296875 
Q 40.140625 3.328125 35.546875 0.953125 
Q 30.953125 -1.421875 24.3125 -1.421875 
Q 15.921875 -1.421875 10.953125 3.296875 
Q 6 8.015625 6 15.921875 
Q 6 25.140625 12.171875 29.828125 
Q 18.359375 34.515625 30.609375 34.515625 
L 43.21875 34.515625 
L 43.21875 35.40625 
Q 43.21875 41.609375 39.140625 45 
Q 35.0625 48.390625 27.6875 48.390625 
Q 23 48.390625 18.546875 47.265625 
Q 14.109375 46.140625 10.015625 43.890625 
L 10.015625 52.203125 
Q 14.9375 54.109375 19.578125 55.046875 
Q 24.21875 56 28.609375 56 
Q 40.484375 56 46.34375 49.84375 
Q 52.203125 43.703125 52.203125 31.203125 
" id="BitstreamVeraSans-Roman-61"/>
       <path d="M 44.28125 53.078125 
L 44.28125 44.578125 
Q 40.484375 46.53125 36.375 47.5 
Q 32.28125 48.484375 27.875 48.484375 
Q 21.1875 48.484375 17.84375 46.4375 
Q 14.5 44.390625 14.5 40.28125 
Q 14.5 37.15625 16.890625 35.375 
Q 19.28125 33.59375 26.515625 31.984375 
L 29.59375 31.296875 
Q 39.15625 29.25 43.1875 25.515625 
Q 47.21875 21.78125 47.21875 15.09375 
Q 47.21875 7.46875 41.1875 3.015625 
Q 35.15625 -1.421875 24.609375 -1.421875 
Q 20.21875 -1.421875 15.453125 -0.5625 
Q 10.6875 0.296875 5.421875 2 
L 5.421875 11.28125 
Q 10.40625 8.6875 15.234375 7.390625 
Q 20.0625 6.109375 24.8125 6.109375 
Q 31.15625 6.109375 34.5625 8.28125 
Q 37.984375 10.453125 37.984375 14.40625 
Q 37.984375 18.0625 35.515625 20.015625 
Q 33.0625 21.96875 24.703125 23.78125 
L 21.578125 24.515625 
Q 13.234375 26.265625 9.515625 29.90625 
Q 5.8125 33.546875 5.8125 39.890625 
Q 5.8125 47.609375 11.28125 51.796875 
Q 16.75 56 26.8125 56 
Q 31.78125 56 36.171875 55.265625 
Q 40.578125 54.546875 44.28125 53.078125 
" id="BitstreamVeraSans-Roman-73"/>
      </defs>
      <g transform="translate(46.7165625 363.358125)scale(0.12 -0.12)">
       <use xlink:href="#BitstreamVeraSans-Roman-54"/>
       <use x="61.083984375" xlink:href="#BitstreamVeraSans-Roman-68"/>
       <use x="124.462890625" xlink:href="#BitstreamVeraSans-Roman-61"/>
       <use x="185.7421875" xlink:href="#BitstreamVeraSans-Roman-6c"/>
       <use x="213.525390625" xlink:href="#BitstreamVeraSans-Roman-61"/>
       <use x="274.8046875" xlink:href="#BitstreamVeraSans-Roman-6d"/>
       <use x="372.216796875" xlink:href="#BitstreamVeraSans-Roman-75"/>
       <use x="435.595703125" xlink:href="#BitstreamVeraSans-Roman-73"/>
      </g>
     </g>
    </g>
    <g id="xtick_2">
     <g id="line2d_7">
      <g>
       <use style="stroke:#000000;stroke-width:0.5;" x="145.085625" xlink:href="#mce4a6c929a" y="350.24"/>
      </g>
     </g>
     <g id="line2d_8">
      <g>
       <use style="stroke:#000000;stroke-width:0.5;" x="145.085625" xlink:href="#m06309de240" y="18.81"/>
      </g>
     </g>
     <g id="text_2">
      <!-- Cortex -->
      <defs>
       <path d="M 30.609375 48.390625 
Q 23.390625 48.390625 19.1875 42.75 
Q 14.984375 37.109375 14.984375 27.296875 
Q 14.984375 17.484375 19.15625 11.84375 
Q 23.34375 6.203125 30.609375 6.203125 
Q 37.796875 6.203125 41.984375 11.859375 
Q 46.1875 17.53125 46.1875 27.296875 
Q 46.1875 37.015625 41.984375 42.703125 
Q 37.796875 48.390625 30.609375 48.390625 
M 30.609375 56 
Q 42.328125 56 49.015625 48.375 
Q 55.71875 40.765625 55.71875 27.296875 
Q 55.71875 13.875 49.015625 6.21875 
Q 42.328125 -1.421875 30.609375 -1.421875 
Q 18.84375 -1.421875 12.171875 6.21875 
Q 5.515625 13.875 5.515625 27.296875 
Q 5.515625 40.765625 12.171875 48.375 
Q 18.84375 56 30.609375 56 
" id="BitstreamVeraSans-Roman-6f"/>
       <path d="M 64.40625 67.28125 
L 64.40625 56.890625 
Q 59.421875 61.53125 53.78125 63.8125 
Q 48.140625 66.109375 41.796875 66.109375 
Q 29.296875 66.109375 22.65625 58.46875 
Q 16.015625 50.828125 16.015625 36.375 
Q 16.015625 21.96875 22.65625 14.328125 
Q 29.296875 6.6875 41.796875 6.6875 
Q 48.140625 6.6875 53.78125 8.984375 
Q 59.421875 11.28125 64.40625 15.921875 
L 64.40625 5.609375 
Q 59.234375 2.09375 53.4375 0.328125 
Q 47.65625 -1.421875 41.21875 -1.421875 
Q 24.65625 -1.421875 15.125 8.703125 
Q 5.609375 18.84375 5.609375 36.375 
Q 5.609375 53.953125 15.125 64.078125 
Q 24.65625 74.21875 41.21875 74.21875 
Q 47.75 74.21875 53.53125 72.484375 
Q 59.328125 70.75 64.40625 67.28125 
" id="BitstreamVeraSans-Roman-43"/>
       <path d="M 54.890625 54.6875 
L 35.109375 28.078125 
L 55.90625 0 
L 45.3125 0 
L 29.390625 21.484375 
L 13.484375 0 
L 2.875 0 
L 24.125 28.609375 
L 4.6875 54.6875 
L 15.28125 54.6875 
L 29.78125 35.203125 
L 44.28125 54.6875 
z
" id="BitstreamVeraSans-Roman-78"/>
       <path d="M 56.203125 29.59375 
L 56.203125 25.203125 
L 14.890625 25.203125 
Q 15.484375 15.921875 20.484375 11.0625 
Q 25.484375 6.203125 34.421875 6.203125 
Q 39.59375 6.203125 44.453125 7.46875 
Q 49.3125 8.734375 54.109375 11.28125 
L 54.109375 2.78125 
Q 49.265625 0.734375 44.1875 -0.34375 
Q 39.109375 -1.421875 33.890625 -1.421875 
Q 20.796875 -1.421875 13.15625 6.1875 
Q 5.515625 13.8125 5.515625 26.8125 
Q 5.515625 40.234375 12.765625 48.109375 
Q 20.015625 56 32.328125 56 
Q 43.359375 56 49.78125 48.890625 
Q 56.203125 41.796875 56.203125 29.59375 
M 47.21875 32.234375 
Q 47.125 39.59375 43.09375 43.984375 
Q 39.0625 48.390625 32.421875 48.390625 
Q 24.90625 48.390625 20.390625 44.140625 
Q 15.875 39.890625 15.1875 32.171875 
z
" id="BitstreamVeraSans-Roman-65"/>
       <path d="M 18.3125 70.21875 
L 18.3125 54.6875 
L 36.8125 54.6875 
L 36.8125 47.703125 
L 18.3125 47.703125 
L 18.3125 18.015625 
Q 18.3125 11.328125 20.140625 9.421875 
Q 21.96875 7.515625 27.59375 7.515625 
L 36.8125 7.515625 
L 36.8125 0 
L 27.59375 0 
Q 17.1875 0 13.234375 3.875 
Q 9.28125 7.765625 9.28125 18.015625 
L 9.28125 47.703125 
L 2.6875 47.703125 
L 2.6875 54.6875 
L 9.28125 54.6875 
L 9.28125 70.21875 
z
" id="BitstreamVeraSans-Roman-74"/>
       <path d="M 41.109375 46.296875 
Q 39.59375 47.171875 37.8125 47.578125 
Q 36.03125 48 33.890625 48 
Q 26.265625 48 22.1875 43.046875 
Q 18.109375 38.09375 18.109375 28.8125 
L 18.109375 0 
L 9.078125 0 
L 9.078125 54.6875 
L 18.109375 54.6875 
L 18.109375 46.1875 
Q 20.953125 51.171875 25.484375 53.578125 
Q 30.03125 56 36.53125 56 
Q 37.453125 56 38.578125 55.875 
Q 39.703125 55.765625 41.0625 55.515625 
z
" id="BitstreamVeraSans-Roman-72"/>
      </defs>
      <g transform="translate(125.16375 363.358125)scale(0.12 -0.12)">
       <use xlink:href="#BitstreamVeraSans-Roman-43"/>
       <use x="69.82421875" xlink:href="#BitstreamVeraSans-Roman-6f"/>
       <use x="131.005859375" xlink:href="#BitstreamVeraSans-Roman-72"/>
       <use x="172.119140625" xlink:href="#BitstreamVeraSans-Roman-74"/>
       <use x="211.328125" xlink:href="#BitstreamVeraSans-Roman-65"/>
       <use x="272.8359375" xlink:href="#BitstreamVeraSans-Roman-78"/>
      </g>
     </g>
    </g>
   </g>
   <g id="matplotlib.axis_2">
    <g id="ytick_1">
     <g id="line2d_9">
      <defs>
       <path d="M 0 0 
L 4 0 
" id="m97474b2972" style="stroke:#000000;stroke-width:0.5;"/>
      </defs>
      <g>
       <use style="stroke:#000000;stroke-width:0.5;" x="41.4225" xlink:href="#m97474b2972" y="350.24"/>
      </g>
     </g>
     <g id="line2d_10">
      <defs>
       <path d="M 0 0 
L -4 0 
" id="mfefdf8f6c6" style="stroke:#000000;stroke-width:0.5;"/>
      </defs>
      <g>
       <use style="stroke:#000000;stroke-width:0.5;" x="179.64" xlink:href="#mfefdf8f6c6" y="350.24"/>
      </g>
     </g>
     <g id="text_3">
      <!-- 0 -->
      <defs>
       <path d="M 31.78125 66.40625 
Q 24.171875 66.40625 20.328125 58.90625 
Q 16.5 51.421875 16.5 36.375 
Q 16.5 21.390625 20.328125 13.890625 
Q 24.171875 6.390625 31.78125 6.390625 
Q 39.453125 6.390625 43.28125 13.890625 
Q 47.125 21.390625 47.125 36.375 
Q 47.125 51.421875 43.28125 58.90625 
Q 39.453125 66.40625 31.78125 66.40625 
M 31.78125 74.21875 
Q 44.046875 74.21875 50.515625 64.515625 
Q 56.984375 54.828125 56.984375 36.375 
Q 56.984375 17.96875 50.515625 8.265625 
Q 44.046875 -1.421875 31.78125 -1.421875 
Q 19.53125 -1.421875 13.0625 8.265625 
Q 6.59375 17.96875 6.59375 36.375 
Q 6.59375 54.828125 13.0625 64.515625 
Q 19.53125 74.21875 31.78125 74.21875 
" id="BitstreamVeraSans-Roman-30"/>
      </defs>
      <g transform="translate(29.7875 353.55125)scale(0.12 -0.12)">
       <use xlink:href="#BitstreamVeraSans-Roman-30"/>
      </g>
     </g>
    </g>
    <g id="ytick_2">
     <g id="line2d_11">
      <g>
       <use style="stroke:#000000;stroke-width:0.5;" x="41.4225" xlink:href="#m97474b2972" y="295.001666667"/>
      </g>
     </g>
     <g id="line2d_12">
      <g>
       <use style="stroke:#000000;stroke-width:0.5;" x="179.64" xlink:href="#mfefdf8f6c6" y="295.001666667"/>
      </g>
     </g>
     <g id="text_4">
      <!-- 1 -->
      <defs>
       <path d="M 12.40625 8.296875 
L 28.515625 8.296875 
L 28.515625 63.921875 
L 10.984375 60.40625 
L 10.984375 69.390625 
L 28.421875 72.90625 
L 38.28125 72.90625 
L 38.28125 8.296875 
L 54.390625 8.296875 
L 54.390625 0 
L 12.40625 0 
z
" id="BitstreamVeraSans-Roman-31"/>
      </defs>
      <g transform="translate(29.7875 298.312916667)scale(0.12 -0.12)">
       <use xlink:href="#BitstreamVeraSans-Roman-31"/>
      </g>
     </g>
    </g>
    <g id="ytick_3">
     <g id="line2d_13">
      <g>
       <use style="stroke:#000000;stroke-width:0.5;" x="41.4225" xlink:href="#m97474b2972" y="239.763333333"/>
      </g>
     </g>
     <g id="line2d_14">
      <g>
       <use style="stroke:#000000;stroke-width:0.5;" x="179.64" xlink:href="#mfefdf8f6c6" y="239.763333333"/>
      </g>
     </g>
     <g id="text_5">
      <!-- 2 -->
      <defs>
       <path d="M 19.1875 8.296875 
L 53.609375 8.296875 
L 53.609375 0 
L 7.328125 0 
L 7.328125 8.296875 
Q 12.9375 14.109375 22.625 23.890625 
Q 32.328125 33.6875 34.8125 36.53125 
Q 39.546875 41.84375 41.421875 45.53125 
Q 43.3125 49.21875 43.3125 52.78125 
Q 43.3125 58.59375 39.234375 62.25 
Q 35.15625 65.921875 28.609375 65.921875 
Q 23.96875 65.921875 18.8125 64.3125 
Q 13.671875 62.703125 7.8125 59.421875 
L 7.8125 69.390625 
Q 13.765625 71.78125 18.9375 73 
Q 24.125 74.21875 28.421875 74.21875 
Q 39.75 74.21875 46.484375 68.546875 
Q 53.21875 62.890625 53.21875 53.421875 
Q 53.21875 48.921875 51.53125 44.890625 
Q 49.859375 40.875 45.40625 35.40625 
Q 44.1875 33.984375 37.640625 27.21875 
Q 31.109375 20.453125 19.1875 8.296875 
" id="BitstreamVeraSans-Roman-32"/>
      </defs>
      <g transform="translate(29.7875 243.074583333)scale(0.12 -0.12)">
       <use xlink:href="#BitstreamVeraSans-Roman-32"/>
      </g>
     </g>
    </g>
    <g id="ytick_4">
     <g id="line2d_15">
      <g>
       <use style="stroke:#000000;stroke-width:0.5;" x="41.4225" xlink:href="#m97474b2972" y="184.525"/>
      </g>
     </g>
     <g id="line2d_16">
      <g>
       <use style="stroke:#000000;stroke-width:0.5;" x="179.64" xlink:href="#mfefdf8f6c6" y="184.525"/>
      </g>
     </g>
     <g id="text_6">
      <!-- 3 -->
      <defs>
       <path d="M 40.578125 39.3125 
Q 47.65625 37.796875 51.625 33 
Q 55.609375 28.21875 55.609375 21.1875 
Q 55.609375 10.40625 48.1875 4.484375 
Q 40.765625 -1.421875 27.09375 -1.421875 
Q 22.515625 -1.421875 17.65625 -0.515625 
Q 12.796875 0.390625 7.625 2.203125 
L 7.625 11.71875 
Q 11.71875 9.328125 16.59375 8.109375 
Q 21.484375 6.890625 26.8125 6.890625 
Q 36.078125 6.890625 40.9375 10.546875 
Q 45.796875 14.203125 45.796875 21.1875 
Q 45.796875 27.640625 41.28125 31.265625 
Q 36.765625 34.90625 28.71875 34.90625 
L 20.21875 34.90625 
L 20.21875 43.015625 
L 29.109375 43.015625 
Q 36.375 43.015625 40.234375 45.921875 
Q 44.09375 48.828125 44.09375 54.296875 
Q 44.09375 59.90625 40.109375 62.90625 
Q 36.140625 65.921875 28.71875 65.921875 
Q 24.65625 65.921875 20.015625 65.03125 
Q 15.375 64.15625 9.8125 62.3125 
L 9.8125 71.09375 
Q 15.4375 72.65625 20.34375 73.4375 
Q 25.25 74.21875 29.59375 74.21875 
Q 40.828125 74.21875 47.359375 69.109375 
Q 53.90625 64.015625 53.90625 55.328125 
Q 53.90625 49.265625 50.4375 45.09375 
Q 46.96875 40.921875 40.578125 39.3125 
" id="BitstreamVeraSans-Roman-33"/>
      </defs>
      <g transform="translate(29.7875 187.83625)scale(0.12 -0.12)">
       <use xlink:href="#BitstreamVeraSans-Roman-33"/>
      </g>
     </g>
    </g>
    <g id="ytick_5">
     <g id="line2d_17">
      <g>
       <use style="stroke:#000000;stroke-width:0.5;" x="41.4225" xlink:href="#m97474b2972" y="129.286666667"/>
      </g>
     </g>
     <g id="line2d_18">
      <g>
       <use style="stroke:#000000;stroke-width:0.5;" x="179.64" xlink:href="#mfefdf8f6c6" y="129.286666667"/>
      </g>
     </g>
     <g id="text_7">
      <!-- 4 -->
      <defs>
       <path d="M 37.796875 64.3125 
L 12.890625 25.390625 
L 37.796875 25.390625 
z
M 35.203125 72.90625 
L 47.609375 72.90625 
L 47.609375 25.390625 
L 58.015625 25.390625 
L 58.015625 17.1875 
L 47.609375 17.1875 
L 47.609375 0 
L 37.796875 0 
L 37.796875 17.1875 
L 4.890625 17.1875 
L 4.890625 26.703125 
z
" id="BitstreamVeraSans-Roman-34"/>
      </defs>
      <g transform="translate(29.7875 132.597916667)scale(0.12 -0.12)">
       <use xlink:href="#BitstreamVeraSans-Roman-34"/>
      </g>
     </g>
    </g>
    <g id="ytick_6">
     <g id="line2d_19">
      <g>
       <use style="stroke:#000000;stroke-width:0.5;" x="41.4225" xlink:href="#m97474b2972" y="74.0483333333"/>
      </g>
     </g>
     <g id="line2d_20">
      <g>
       <use style="stroke:#000000;stroke-width:0.5;" x="179.64" xlink:href="#mfefdf8f6c6" y="74.0483333333"/>
      </g>
     </g>
     <g id="text_8">
      <!-- 5 -->
      <defs>
       <path d="M 10.796875 72.90625 
L 49.515625 72.90625 
L 49.515625 64.59375 
L 19.828125 64.59375 
L 19.828125 46.734375 
Q 21.96875 47.46875 24.109375 47.828125 
Q 26.265625 48.1875 28.421875 48.1875 
Q 40.625 48.1875 47.75 41.5 
Q 54.890625 34.8125 54.890625 23.390625 
Q 54.890625 11.625 47.5625 5.09375 
Q 40.234375 -1.421875 26.90625 -1.421875 
Q 22.3125 -1.421875 17.546875 -0.640625 
Q 12.796875 0.140625 7.71875 1.703125 
L 7.71875 11.625 
Q 12.109375 9.234375 16.796875 8.0625 
Q 21.484375 6.890625 26.703125 6.890625 
Q 35.15625 6.890625 40.078125 11.328125 
Q 45.015625 15.765625 45.015625 23.390625 
Q 45.015625 31 40.078125 35.4375 
Q 35.15625 39.890625 26.703125 39.890625 
Q 22.75 39.890625 18.8125 39.015625 
Q 14.890625 38.140625 10.796875 36.28125 
z
" id="BitstreamVeraSans-Roman-35"/>
      </defs>
      <g transform="translate(29.7875 77.3595833333)scale(0.12 -0.12)">
       <use xlink:href="#BitstreamVeraSans-Roman-35"/>
      </g>
     </g>
    </g>
    <g id="ytick_7">
     <g id="line2d_21">
      <g>
       <use style="stroke:#000000;stroke-width:0.5;" x="41.4225" xlink:href="#m97474b2972" y="18.81"/>
      </g>
     </g>
     <g id="line2d_22">
      <g>
       <use style="stroke:#000000;stroke-width:0.5;" x="179.64" xlink:href="#mfefdf8f6c6" y="18.81"/>
      </g>
     </g>
     <g id="text_9">
      <!-- 6 -->
      <defs>
       <path d="M 33.015625 40.375 
Q 26.375 40.375 22.484375 35.828125 
Q 18.609375 31.296875 18.609375 23.390625 
Q 18.609375 15.53125 22.484375 10.953125 
Q 26.375 6.390625 33.015625 6.390625 
Q 39.65625 6.390625 43.53125 10.953125 
Q 47.40625 15.53125 47.40625 23.390625 
Q 47.40625 31.296875 43.53125 35.828125 
Q 39.65625 40.375 33.015625 40.375 
M 52.59375 71.296875 
L 52.59375 62.3125 
Q 48.875 64.0625 45.09375 64.984375 
Q 41.3125 65.921875 37.59375 65.921875 
Q 27.828125 65.921875 22.671875 59.328125 
Q 17.53125 52.734375 16.796875 39.40625 
Q 19.671875 43.65625 24.015625 45.921875 
Q 28.375 48.1875 33.59375 48.1875 
Q 44.578125 48.1875 50.953125 41.515625 
Q 57.328125 34.859375 57.328125 23.390625 
Q 57.328125 12.15625 50.6875 5.359375 
Q 44.046875 -1.421875 33.015625 -1.421875 
Q 20.359375 -1.421875 13.671875 8.265625 
Q 6.984375 17.96875 6.984375 36.375 
Q 6.984375 53.65625 15.1875 63.9375 
Q 23.390625 74.21875 37.203125 74.21875 
Q 40.921875 74.21875 44.703125 73.484375 
Q 48.484375 72.75 52.59375 71.296875 
" id="BitstreamVeraSans-Roman-36"/>
      </defs>
      <g transform="translate(29.7875 22.12125)scale(0.12 -0.12)">
       <use xlink:href="#BitstreamVeraSans-Roman-36"/>
      </g>
     </g>
    </g>
    <g id="text_10">
     <!-- Q10 -->
     <defs>
      <path d="M 39.40625 66.21875 
Q 28.65625 66.21875 22.328125 58.203125 
Q 16.015625 50.203125 16.015625 36.375 
Q 16.015625 22.609375 22.328125 14.59375 
Q 28.65625 6.59375 39.40625 6.59375 
Q 50.140625 6.59375 56.421875 14.59375 
Q 62.703125 22.609375 62.703125 36.375 
Q 62.703125 50.203125 56.421875 58.203125 
Q 50.140625 66.21875 39.40625 66.21875 
M 53.21875 1.3125 
L 66.21875 -12.890625 
L 54.296875 -12.890625 
L 43.5 -1.21875 
Q 41.890625 -1.3125 41.03125 -1.359375 
Q 40.1875 -1.421875 39.40625 -1.421875 
Q 24.03125 -1.421875 14.8125 8.859375 
Q 5.609375 19.140625 5.609375 36.375 
Q 5.609375 53.65625 14.8125 63.9375 
Q 24.03125 74.21875 39.40625 74.21875 
Q 54.734375 74.21875 63.90625 63.9375 
Q 73.09375 53.65625 73.09375 36.375 
Q 73.09375 23.6875 67.984375 14.640625 
Q 62.890625 5.609375 53.21875 1.3125 
" id="BitstreamVeraSans-Roman-51"/>
     </defs>
     <g transform="translate(22.291875 196.883125)rotate(-90.0)scale(0.12 -0.12)">
      <use xlink:href="#BitstreamVeraSans-Roman-51"/>
      <use x="78.7109375" xlink:href="#BitstreamVeraSans-Roman-31"/>
      <use x="142.333984375" xlink:href="#BitstreamVeraSans-Roman-30"/>
     </g>
    </g>
   </g>
  </g>
 </g>
 <defs>
  <clipPath id="pbb7a2b4ba5">
   <rect height="331.43" width="138.2175" x="41.4225" y="18.81"/>
  </clipPath>
 </defs>
</svg>
