<?xml version="1.0" encoding="utf-8" standalone="no"?>
<!DOCTYPE svg PUBLIC "-//W3C//DTD SVG 1.1//EN"
  "http://www.w3.org/Graphics/SVG/1.1/DTD/svg11.dtd">
<!-- Created with matplotlib (http://matplotlib.org/) -->
<svg height="444pt" version="1.1" viewBox="0 0 289 444" width="289pt" xmlns="http://www.w3.org/2000/svg" xmlns:xlink="http://www.w3.org/1999/xlink">
 <defs>
  <style type="text/css">
*{stroke-linecap:butt;stroke-linejoin:round;stroke-miterlimit:100000;}
  </style>
 </defs>
 <g id="figure_1">
  <g id="patch_1">
   <path d="M 0 444.6 
L 289.8 444.6 
L 289.8 0 
L 0 0 
z
" style="fill:#ffffff;"/>
  </g>
  <g id="axes_1">
   <g id="line2d_1">
    <path clip-path="url(#p76a18b9f3f)" d="M 49.436471 76.009825 
L 50.757618 76.038485 
L 52.078765 77.380687 
L 53.399912 79.157554 
L 54.721059 81.096822 
L 56.042206 85.581976 
L 57.363353 95.077703 
L 58.6845 106.536581 
L 60.005647 112.024805 
L 61.326794 108.026856 
L 62.647941 98.860709 
L 63.969088 89.942941 
L 65.290235 83.040867 
L 66.611382 77.5001 
L 67.932529 72.570729 
L 69.253676 67.627028 
L 70.574824 62.793188 
L 71.895971 59.010182 
L 73.217118 56.378318 
L 74.538265 54.759077 
L 75.859412 54.539357 
L 77.180559 55.594968 
L 78.501706 56.956277 
L 79.822853 58.513424 
L 81.144 60.557775 
L 82.465147 62.826623 
L 83.786294 64.999941 
L 85.107441 66.838902 
L 86.428588 68.181105 
L 87.749735 68.954902 
L 89.070882 69.504202 
L 90.392029 70.798639 
L 91.713176 73.019722 
L 93.034324 75.470078 
L 94.355471 77.227839 
L 95.676618 77.695938 
L 96.997765 77.156191 
L 98.318912 76.697645 
L 99.640059 76.903035 
L 100.961206 77.414123 
" style="fill:none;stroke:#000000;stroke-linecap:square;stroke-width:3.0;"/>
   </g>
   <g id="line2d_2">
    <path clip-path="url(#p76a18b9f3f)" d="M 49.436471 75.670892 
L 50.757618 74.947928 
L 52.078765 74.49829 
L 53.399912 75.796849 
L 54.721059 80.328656 
L 56.042206 88.799493 
L 57.363353 100.667996 
L 58.6845 112.15453 
L 60.005647 117.05152 
L 61.326794 112.635228 
L 62.647941 102.953328 
L 63.969088 92.965192 
L 65.290235 84.311434 
L 66.611382 76.365968 
L 67.932529 69.008522 
L 69.253676 62.796584 
L 70.574824 58.007708 
L 71.895971 54.529816 
L 73.217118 52.155798 
L 74.538265 50.645372 
L 75.859412 49.795923 
L 77.180559 49.594762 
L 78.501706 50.120001 
L 79.822853 51.358556 
L 81.144 53.035382 
L 82.465147 55.008928 
L 83.786294 57.137112 
L 85.107441 59.479806 
L 86.428588 61.93101 
L 87.749735 64.368205 
L 89.070882 66.795883 
L 90.392029 69.198846 
L 91.713176 71.347251 
L 93.034324 73.146466 
L 94.355471 74.745842 
L 95.676618 76.307682 
L 96.997765 77.809781 
L 98.318912 79.173368 
L 99.640059 80.356147 
L 100.961206 81.403189 
" style="fill:none;stroke:#00bfff;stroke-linecap:square;stroke-width:3.0;"/>
   </g>
   <g id="line2d_3">
    <path clip-path="url(#p76a18b9f3f)" d="M 40.188441 46.180443 
L 40.188441 76.989013 
" style="fill:none;stroke:#808080;stroke-linecap:square;stroke-width:2.0;"/>
   </g>
   <g id="line2d_4">
    <path clip-path="url(#p76a18b9f3f)" d="M 40.188441 46.180443 
L 79.822853 46.180443 
" style="fill:none;stroke:#808080;stroke-linecap:square;stroke-width:2.0;"/>
   </g>
  </g>
  <g id="axes_2">
   <g id="line2d_5">
    <path clip-path="url(#pf0f15e0f2a)" d="M 115.493824 78.632136 
L 117.145257 79.746489 
L 118.796691 79.938769 
L 120.448125 80.956982 
L 122.099559 83.780008 
L 123.750993 88.503989 
L 125.402426 95.085224 
L 127.05386 102.23456 
L 128.705294 105.485847 
L 130.356728 101.797559 
L 132.008162 94.665703 
L 133.659596 89.02839 
L 135.311029 85.348842 
L 136.962463 82.149994 
L 138.613897 79.401258 
L 140.265331 77.509044 
L 141.916765 76.438391 
L 143.568199 75.306559 
L 145.219632 73.667805 
L 146.871066 72.007201 
L 148.5225 70.621908 
L 150.173934 69.686726 
L 151.825368 69.358975 
L 153.476801 69.656136 
L 155.128235 70.171797 
L 156.779669 70.215497 
L 158.431103 70.005737 
L 160.082537 70.333487 
L 161.733971 71.163789 
L 163.385404 71.845511 
L 165.036838 72.662703 
L 166.688272 73.641585 
L 168.339706 73.960596 
L 169.99114 73.034154 
L 171.642574 71.58768 
L 173.294007 70.945289 
L 174.945441 71.37792 
L 176.596875 72.632113 
L 178.248309 73.405604 
L 179.899743 75.013768 
" style="fill:none;stroke:#000000;stroke-linecap:square;stroke-width:3.0;"/>
   </g>
   <g id="line2d_6">
    <path clip-path="url(#pf0f15e0f2a)" d="M 115.493824 77.607346 
L 117.145257 79.144531 
L 118.796691 80.941157 
L 120.448125 83.250179 
L 122.099559 85.9689 
L 123.750993 89.779434 
L 125.402426 95.559554 
L 127.05386 102.422838 
L 128.705294 105.982579 
L 130.356728 102.804432 
L 132.008162 95.978983 
L 133.659596 90.2821 
L 135.311029 86.56237 
L 136.962463 83.329092 
L 138.613897 80.130406 
L 140.265331 77.410603 
L 141.916765 75.430207 
L 143.568199 73.996798 
L 145.219632 72.797966 
L 146.871066 71.603458 
L 148.5225 70.434895 
L 150.173934 69.452263 
L 151.825368 68.733397 
L 153.476801 68.349641 
L 155.128235 68.121549 
L 156.779669 67.760495 
L 158.431103 67.440518 
L 160.082537 67.483758 
L 161.733971 67.754009 
L 163.385404 67.564833 
L 165.036838 67.427546 
L 166.688272 67.560509 
L 168.339706 67.748604 
L 169.99114 67.989667 
L 171.642574 68.362613 
L 173.294007 69.198228 
L 174.945441 70.384088 
L 176.596875 71.511573 
L 178.248309 72.631492 
L 179.899743 74.129761 
" style="fill:none;stroke:#00bfff;stroke-linecap:square;stroke-width:3.0;"/>
   </g>
  </g>
  <g id="axes_3">
   <g id="line2d_7">
    <path clip-path="url(#p072e7597c4)" d="M 194.762647 80.614748 
L 196.414081 81.322582 
L 198.065515 82.089825 
L 199.716949 83.554718 
L 201.368382 85.834382 
L 203.019816 89.035757 
L 204.67125 94.766321 
L 206.322684 101.629079 
L 207.974118 105.081676 
L 209.625551 101.043461 
L 211.276985 94.493033 
L 212.928419 89.164763 
L 214.579853 85.839474 
L 216.231287 82.729761 
L 217.882721 79.372221 
L 219.534154 76.315128 
L 221.185588 73.869114 
L 222.837022 72.222596 
L 224.488456 71.30428 
L 226.13989 70.211127 
L 227.791324 68.646086 
L 229.442757 67.559723 
L 231.094191 67.274553 
L 232.745625 66.99108 
L 234.397059 66.755135 
L 236.048493 67.106506 
L 237.699926 67.384886 
L 239.35136 67.457876 
L 241.002794 67.958622 
L 242.654228 68.65627 
L 244.305662 69.175688 
L 245.957096 69.864849 
L 247.608529 70.718662 
L 249.259963 71.192249 
L 250.911397 71.3569 
L 252.562831 72.061339 
L 254.214265 72.753895 
L 255.865699 73.397226 
L 257.517132 74.271408 
L 259.168566 75.449433 
" style="fill:none;stroke:#000000;stroke-linecap:square;stroke-width:3.0;"/>
   </g>
   <g id="line2d_8">
    <path clip-path="url(#p072e7597c4)" d="M 194.762647 78.587772 
L 196.414081 79.627869 
L 198.065515 80.825706 
L 199.716949 82.666005 
L 201.368382 85.410022 
L 203.019816 89.618062 
L 204.67125 95.418288 
L 206.322684 101.83633 
L 207.974118 104.790666 
L 209.625551 101.517564 
L 211.276985 94.61973 
L 212.928419 89.205637 
L 214.579853 85.888171 
L 216.231287 82.956838 
L 217.882721 79.59665 
L 219.534154 76.259466 
L 221.185588 73.587746 
L 222.837022 71.959411 
L 224.488456 70.960392 
L 226.13989 70.308071 
L 227.791324 69.662324 
L 229.442757 69.154599 
L 231.094191 68.799684 
L 232.745625 68.472702 
L 234.397059 68.400405 
L 236.048493 68.687951 
L 237.699926 69.036294 
L 239.35136 69.161171 
L 241.002794 69.322197 
L 242.654228 69.726406 
L 244.305662 70.176622 
L 245.957096 70.314644 
L 247.608529 70.342577 
L 249.259963 70.419804 
L 250.911397 70.398443 
L 252.562831 70.700778 
L 254.214265 71.445113 
L 255.865699 72.611731 
L 257.517132 73.819427 
L 259.168566 74.323866 
" style="fill:none;stroke:#00bfff;stroke-linecap:square;stroke-width:3.0;"/>
   </g>
  </g>
  <g id="axes_4">
   <g id="line2d_9">
    <path clip-path="url(#p5efb464f4b)" d="M 36.225 171.642007 
L 37.876434 173.453735 
L 39.527868 175.148972 
L 41.179301 177.067994 
L 42.830735 178.787756 
L 44.482169 181.696943 
L 46.133603 187.880116 
L 47.785037 195.657364 
L 49.436471 199.280819 
L 51.087904 195.356942 
L 52.739338 187.21183 
L 54.390772 180.08754 
L 56.042206 175.700768 
L 57.69364 172.877415 
L 59.345074 170.12457 
L 60.996507 167.506608 
L 62.647941 165.664225 
L 64.299375 164.263278 
L 65.950809 162.963493 
L 67.602243 161.915082 
L 69.253676 161.010751 
L 70.90511 160.075765 
L 72.556544 159.465724 
L 74.207978 159.505576 
L 75.859412 160.011388 
L 77.510846 160.262762 
L 79.162279 160.011388 
L 80.813713 159.548494 
L 82.465147 159.113188 
L 84.116581 159.18063 
L 85.768015 159.980733 
L 87.419449 161.323435 
L 89.070882 163.119835 
L 90.722316 164.750697 
L 92.37375 165.204395 
L 94.025184 165.385261 
L 95.676618 165.661159 
L 97.328051 165.891074 
L 98.979485 166.954812 
L 100.630919 168.604067 
" style="fill:none;stroke:#000000;stroke-linecap:square;stroke-width:3.0;"/>
   </g>
   <g id="line2d_10">
    <path clip-path="url(#p5efb464f4b)" d="M 36.225 170.680008 
L 37.876434 171.754587 
L 39.527868 173.359014 
L 41.179301 175.401012 
L 42.830735 177.917294 
L 44.482169 181.926873 
L 46.133603 188.597598 
L 47.785037 196.11469 
L 49.436471 199.517028 
L 51.087904 196.067064 
L 52.739338 189.065928 
L 54.390772 182.986568 
L 56.042206 178.851969 
L 57.69364 175.381168 
L 59.345074 171.852818 
L 60.996507 168.589391 
L 62.647941 165.998693 
L 64.299375 164.031112 
L 65.950809 162.261976 
L 67.602243 160.622821 
L 69.253676 159.508553 
L 70.90511 158.844755 
L 72.556544 158.224614 
L 74.207978 157.789028 
L 75.859412 157.648132 
L 77.510846 157.451671 
L 79.162279 157.26811 
L 80.813713 157.704689 
L 82.465147 158.687983 
L 84.116581 159.669293 
L 85.768015 160.572217 
L 87.419449 161.270743 
L 89.070882 161.79563 
L 90.722316 162.514001 
L 92.37375 163.452645 
L 94.025184 164.532185 
L 95.676618 165.531355 
L 97.328051 166.351925 
L 98.979485 167.262787 
L 100.630919 168.692583 
" style="fill:none;stroke:#00bfff;stroke-linecap:square;stroke-width:3.0;"/>
   </g>
  </g>
  <g id="axes_5">
   <g id="line2d_11">
    <path clip-path="url(#p77519679d7)" d="M 115.493824 177.029646 
L 117.145257 179.558274 
L 118.796691 182.424052 
L 120.448125 185.198761 
L 122.099559 187.990909 
L 123.750993 191.329473 
L 125.402426 196.462297 
L 127.05386 202.622073 
L 128.705294 205.86763 
L 130.356728 203.416508 
L 132.008162 197.524127 
L 133.659596 192.073529 
L 135.311029 188.101355 
L 136.962463 184.499271 
L 138.613897 180.697609 
L 140.265331 176.884322 
L 141.916765 173.282239 
L 143.568199 170.197506 
L 145.219632 167.22322 
L 146.871066 164.184991 
L 148.5225 161.726118 
L 150.173934 159.550142 
L 151.825368 156.845188 
L 153.476801 154.049165 
L 155.128235 152.530051 
L 156.779669 151.972009 
L 158.431103 151.289957 
L 160.082537 150.667973 
L 161.733971 150.493585 
L 163.385404 150.79392 
L 165.036838 151.274456 
L 166.688272 151.811184 
L 168.339706 152.057265 
L 169.99114 152.241342 
L 171.642574 153.029964 
L 173.294007 154.033664 
L 174.945441 156.385966 
L 176.596875 158.848714 
L 178.248309 160.269009 
L 179.899743 162.47405 
" style="fill:none;stroke:#000000;stroke-linecap:square;stroke-width:3.0;"/>
   </g>
   <g id="line2d_12">
    <path clip-path="url(#p77519679d7)" d="M 115.493824 177.775806 
L 117.145257 180.256814 
L 118.796691 183.062911 
L 120.448125 185.501752 
L 122.099559 188.254801 
L 123.750993 192.076968 
L 125.402426 197.5545 
L 127.05386 203.586995 
L 128.705294 206.429817 
L 130.356728 203.426491 
L 132.008162 196.970974 
L 133.659596 190.971124 
L 135.311029 186.545027 
L 136.962463 182.841198 
L 138.613897 179.568552 
L 140.265331 176.611474 
L 141.916765 173.635352 
L 143.568199 170.803412 
L 145.219632 168.289759 
L 146.871066 165.757063 
L 148.5225 163.299179 
L 150.173934 161.01676 
L 151.825368 158.753385 
L 153.476801 156.579782 
L 155.128235 154.618371 
L 156.779669 153.039177 
L 158.431103 152.065272 
L 160.082537 151.790512 
L 161.733971 151.292678 
L 163.385404 151.703459 
L 165.036838 152.25026 
L 166.688272 153.806331 
L 168.339706 155.388245 
L 169.99114 156.318623 
L 171.642574 158.239228 
L 173.294007 159.300186 
L 174.945441 160.250967 
L 176.596875 162.348398 
L 178.248309 163.986081 
L 179.899743 167.008449 
" style="fill:none;stroke:#00bfff;stroke-linecap:square;stroke-width:3.0;"/>
   </g>
  </g>
  <g id="axes_6">
   <g id="line2d_13">
    <path clip-path="url(#p996e5df5be)" d="M 194.762647 175.033225 
L 196.414081 176.548464 
L 198.065515 178.367913 
L 199.716949 180.51095 
L 201.368382 183.047328 
L 203.019816 186.34068 
L 204.67125 190.905128 
L 206.322684 196.262719 
L 207.974118 198.988987 
L 209.625551 196.145169 
L 211.276985 190.370984 
L 212.928419 185.429341 
L 214.579853 182.497683 
L 216.231287 180.00264 
L 217.882721 177.371963 
L 219.534154 175.040975 
L 221.185588 172.947026 
L 222.837022 170.789134 
L 224.488456 168.725541 
L 226.13989 166.906738 
L 227.791324 165.208714 
L 229.442757 163.584321 
L 231.094191 162.182757 
L 232.745625 161.140949 
L 234.397059 160.017761 
L 236.048493 158.972078 
L 237.699926 158.310049 
L 239.35136 157.755882 
L 241.002794 156.976302 
L 242.654228 156.360777 
L 244.305662 156.340109 
L 245.957096 156.761224 
L 247.608529 157.250802 
L 249.259963 157.823054 
L 250.911397 158.432766 
L 252.562831 159.710321 
L 254.214265 160.929746 
L 255.865699 162.015473 
L 257.517132 163.416391 
L 259.168566 164.455616 
" style="fill:none;stroke:#000000;stroke-linecap:square;stroke-width:3.0;"/>
   </g>
   <g id="line2d_14">
    <path clip-path="url(#p996e5df5be)" d="M 194.762647 174.520608 
L 196.414081 176.597787 
L 198.065515 178.290949 
L 199.716949 180.167392 
L 201.368382 182.199186 
L 203.019816 185.089781 
L 204.67125 190.060463 
L 206.322684 196.208212 
L 207.974118 199.329798 
L 209.625551 196.519498 
L 211.276985 190.716781 
L 212.928419 185.737372 
L 214.579853 182.508727 
L 216.231287 179.83865 
L 217.882721 177.134828 
L 219.534154 174.542718 
L 221.185588 172.242112 
L 222.837022 170.366252 
L 224.488456 168.502028 
L 226.13989 166.836212 
L 227.791324 165.500883 
L 229.442757 164.473931 
L 231.094191 163.393449 
L 232.745625 162.127359 
L 234.397059 161.004985 
L 236.048493 160.083928 
L 237.699926 159.57307 
L 239.35136 159.349642 
L 241.002794 159.234437 
L 242.654228 159.217564 
L 244.305662 159.223964 
L 245.957096 159.163453 
L 247.608529 159.407245 
L 249.259963 159.770896 
L 250.911397 160.337611 
L 252.562831 160.970074 
L 254.214265 162.02961 
L 255.865699 163.388794 
L 257.517132 165.165742 
L 259.168566 166.661659 
" style="fill:none;stroke:#00bfff;stroke-linecap:square;stroke-width:3.0;"/>
   </g>
  </g>
  <g id="axes_7">
   <g id="line2d_15">
    <path clip-path="url(#pef63e7b7e6)" d="M 36.225 268.068218 
L 37.876434 270.043497 
L 39.527868 271.715504 
L 41.179301 273.564018 
L 42.830735 276.18756 
L 44.482169 279.23793 
L 46.133603 282.506526 
L 47.785037 285.017746 
L 49.436471 286.031861 
L 51.087904 284.740148 
L 52.739338 281.85024 
L 54.390772 278.811102 
L 56.042206 276.113748 
L 57.69364 273.20298 
L 59.345074 270.152611 
L 60.996507 267.596462 
L 62.647941 265.582673 
L 64.299375 263.531977 
L 65.950809 261.462027 
L 67.602243 259.862227 
L 69.253676 258.729371 
L 70.90511 257.851647 
L 72.556544 256.667443 
L 74.207978 255.574701 
L 75.859412 254.737093 
L 77.510846 254.499611 
L 79.162279 254.456286 
L 80.813713 253.923555 
L 82.465147 253.342685 
L 84.116581 253.317011 
L 85.768015 253.848138 
L 87.419449 254.343963 
L 89.070882 254.530098 
L 90.722316 254.87509 
L 92.37375 255.658141 
L 94.025184 257.184128 
L 95.676618 258.31859 
L 97.328051 259.443423 
L 98.979485 261.575954 
L 100.630919 263.779088 
" style="fill:none;stroke:#000000;stroke-linecap:square;stroke-width:3.0;"/>
   </g>
   <g id="line2d_16">
    <path clip-path="url(#pef63e7b7e6)" d="M 36.225 266.610633 
L 37.876434 267.985515 
L 39.527868 269.517526 
L 41.179301 271.620814 
L 42.830735 274.072031 
L 44.482169 277.351545 
L 46.133603 282.361725 
L 47.785037 288.048684 
L 49.436471 290.89497 
L 51.087904 288.428039 
L 52.739338 282.85556 
L 54.390772 277.819566 
L 56.042206 274.332417 
L 57.69364 271.601734 
L 59.345074 269.259385 
L 60.996507 266.979887 
L 62.647941 264.777832 
L 64.299375 262.662198 
L 65.950809 260.759811 
L 67.602243 259.214332 
L 69.253676 257.993213 
L 70.90511 257.015644 
L 72.556544 256.362435 
L 74.207978 255.847275 
L 75.859412 255.268141 
L 77.510846 254.807977 
L 79.162279 254.452191 
L 80.813713 254.005495 
L 82.465147 253.559921 
L 84.116581 253.253519 
L 85.768015 253.144651 
L 87.419449 253.227705 
L 89.070882 253.777658 
L 90.722316 254.910111 
L 92.37375 255.920228 
L 94.025184 256.766482 
L 95.676618 257.216545 
L 97.328051 257.92026 
L 98.979485 259.125666 
L 100.630919 260.621762 
" style="fill:none;stroke:#00bfff;stroke-linecap:square;stroke-width:3.0;"/>
   </g>
  </g>
  <g id="axes_8">
   <g id="line2d_17">
    <path clip-path="url(#p3ea21fb0ff)" d="M 115.493824 265.876775 
L 117.145257 267.73344 
L 118.796691 269.483334 
L 120.448125 271.679871 
L 122.099559 274.069573 
L 123.750993 277.275131 
L 125.402426 282.761176 
L 127.05386 289.361382 
L 128.705294 292.527819 
L 130.356728 289.582258 
L 132.008162 283.326815 
L 133.659596 278.334685 
L 135.311029 274.838157 
L 136.962463 271.531534 
L 138.613897 268.105099 
L 140.265331 265.025872 
L 141.916765 262.445451 
L 143.568199 260.189416 
L 145.219632 258.181153 
L 146.871066 256.319598 
L 148.5225 254.553403 
L 150.173934 253.253412 
L 151.825368 252.197933 
L 153.476801 251.341325 
L 155.128235 250.560515 
L 156.779669 249.778075 
L 158.431103 249.29231 
L 160.082537 249.322467 
L 161.733971 249.47977 
L 163.385404 249.684345 
L 165.036838 250.023403 
L 166.688272 250.417068 
L 168.339706 251.047095 
L 169.99114 251.598063 
L 171.642574 252.61605 
L 173.294007 253.481624 
L 174.945441 254.485755 
L 176.596875 255.124747 
L 178.248309 256.263361 
L 179.899743 257.52097 
" style="fill:none;stroke:#000000;stroke-linecap:square;stroke-width:3.0;"/>
   </g>
   <g id="line2d_18">
    <path clip-path="url(#p3ea21fb0ff)" d="M 115.493824 264.607791 
L 117.145257 266.136441 
L 118.796691 267.903993 
L 120.448125 270.118826 
L 122.099559 272.865882 
L 123.750993 276.752042 
L 125.402426 282.703388 
L 127.05386 289.551617 
L 128.705294 292.862087 
L 130.356728 289.986952 
L 132.008162 283.629138 
L 133.659596 277.755436 
L 135.311029 273.373219 
L 136.962463 269.507963 
L 138.613897 265.756186 
L 140.265331 262.476243 
L 141.916765 259.809153 
L 143.568199 257.613566 
L 145.219632 255.668495 
L 146.871066 253.874397 
L 148.5225 252.280713 
L 150.173934 250.820085 
L 151.825368 249.514744 
L 153.476801 248.521968 
L 155.128235 247.651962 
L 156.779669 247.213973 
L 158.431103 246.856281 
L 160.082537 246.577229 
L 161.733971 246.682413 
L 163.385404 247.210323 
L 165.036838 248.22533 
L 166.688272 249.245314 
L 168.339706 250.060904 
L 169.99114 250.827385 
L 171.642574 251.597848 
L 173.294007 252.646036 
L 174.945441 253.810358 
L 176.596875 254.851246 
L 178.248309 256.020545 
L 179.899743 257.329868 
" style="fill:none;stroke:#00bfff;stroke-linecap:square;stroke-width:3.0;"/>
   </g>
  </g>
  <g id="axes_9">
   <g id="line2d_19">
    <path clip-path="url(#pa60da2dc80)" d="M 194.762647 266.880255 
L 196.414081 267.291035 
L 198.065515 268.452959 
L 199.716949 270.58902 
L 201.368382 273.966226 
L 203.019816 279.893208 
L 204.67125 288.895178 
L 206.322684 298.023318 
L 207.974118 302.219151 
L 209.625551 299.106019 
L 211.276985 291.694357 
L 212.928419 284.61132 
L 214.579853 279.441349 
L 216.231287 274.949166 
L 217.882721 270.12249 
L 219.534154 265.454258 
L 221.185588 261.413934 
L 222.837022 257.400017 
L 224.488456 253.113225 
L 226.13989 249.099308 
L 227.791324 245.965637 
L 229.442757 243.721012 
L 231.094191 241.678844 
L 232.745625 239.572125 
L 234.397059 237.720677 
L 236.048493 236.368034 
L 237.699926 235.608089 
L 239.35136 235.555274 
L 241.002794 236.274141 
L 242.654228 237.568101 
L 244.305662 239.134937 
L 245.957096 240.845546 
L 247.608529 242.708731 
L 249.259963 244.527903 
L 250.911397 246.707977 
L 252.562831 249.301765 
L 254.214265 251.217764 
L 255.865699 252.717115 
L 257.517132 255.302101 
L 259.168566 258.330143 
" style="fill:none;stroke:#000000;stroke-linecap:square;stroke-width:3.0;"/>
   </g>
   <g id="line2d_20">
    <path clip-path="url(#pa60da2dc80)" d="M 194.762647 267.230935 
L 196.414081 268.930599 
L 198.065515 271.178355 
L 199.716949 274.110362 
L 201.368382 277.963164 
L 203.019816 283.370241 
L 204.67125 291.109307 
L 206.322684 299.357235 
L 207.974118 303.01157 
L 209.625551 298.993763 
L 211.276985 290.703142 
L 212.928419 282.726376 
L 214.579853 276.401965 
L 216.231287 270.722573 
L 217.882721 265.292418 
L 219.534154 260.531513 
L 221.185588 256.717943 
L 222.837022 253.744397 
L 224.488456 251.015473 
L 226.13989 248.145776 
L 227.791324 245.608396 
L 229.442757 243.851038 
L 231.094191 242.679851 
L 232.745625 241.767133 
L 234.397059 240.970956 
L 236.048493 240.279782 
L 237.699926 239.82977 
L 239.35136 239.895541 
L 241.002794 240.559021 
L 242.654228 241.722131 
L 244.305662 242.945243 
L 245.957096 244.071429 
L 247.608529 245.307233 
L 249.259963 247.008051 
L 250.911397 248.127314 
L 252.562831 249.623895 
L 254.214265 251.21394 
L 255.865699 253.470927 
L 257.517132 255.591757 
L 259.168566 257.506042 
" style="fill:none;stroke:#00bfff;stroke-linecap:square;stroke-width:3.0;"/>
   </g>
  </g>
  <g id="axes_10">
   <g id="line2d_21">
    <path clip-path="url(#pe35d11bb09)" d="M 36.225 357.576616 
L 37.876434 358.068697 
L 39.527868 360.156833 
L 41.179301 363.686982 
L 42.830735 368.517937 
L 44.482169 374.658256 
L 46.133603 382.214914 
L 47.785037 389.797245 
L 49.436471 393.430089 
L 51.087904 390.135284 
L 52.739338 382.095103 
L 54.390772 374.140501 
L 56.042206 368.342499 
L 57.69364 364.136274 
L 59.345074 360.529104 
L 60.996507 357.217182 
L 62.647941 353.900982 
L 64.299375 350.340881 
L 65.950809 347.294256 
L 67.602243 345.000729 
L 69.253676 343.160772 
L 70.90511 341.710202 
L 72.556544 340.841572 
L 74.207978 340.512091 
L 75.859412 340.486417 
L 77.510846 340.76455 
L 79.162279 341.423511 
L 80.813713 341.941266 
L 82.465147 341.624623 
L 84.116581 340.657576 
L 85.768015 340.542044 
L 87.419449 341.748713 
L 89.070882 343.117983 
L 90.722316 344.132098 
L 92.37375 344.33321 
L 94.025184 344.624179 
L 95.676618 345.103424 
L 97.328051 346.425625 
L 98.979485 348.39395 
L 100.630919 351.333601 
" style="fill:none;stroke:#000000;stroke-linecap:square;stroke-width:3.0;"/>
   </g>
   <g id="line2d_22">
    <path clip-path="url(#pe35d11bb09)" d="M 36.225 358.814809 
L 37.876434 360.294459 
L 39.527868 362.307495 
L 41.179301 365.134758 
L 42.830735 368.849601 
L 44.482169 374.237957 
L 46.133603 381.976776 
L 47.785037 390.021585 
L 49.436471 393.561427 
L 51.087904 389.945088 
L 52.739338 382.07004 
L 54.390772 374.25158 
L 56.042206 368.116063 
L 57.69364 363.374268 
L 59.345074 359.272746 
L 60.996507 355.315836 
L 62.647941 351.66282 
L 64.299375 348.794689 
L 65.950809 346.874917 
L 67.602243 345.302003 
L 69.253676 343.560376 
L 70.90511 341.807221 
L 72.556544 340.548681 
L 74.207978 339.809904 
L 75.859412 339.176966 
L 77.510846 338.577561 
L 79.162279 338.23699 
L 80.813713 338.321871 
L 82.465147 339.055408 
L 84.116581 339.793137 
L 85.768015 340.676526 
L 87.419449 341.387009 
L 89.070882 342.045097 
L 90.722316 343.090912 
L 92.37375 344.385081 
L 94.025184 345.773563 
L 95.676618 346.826713 
L 97.328051 347.928067 
L 98.979485 349.242147 
L 100.630919 350.650538 
" style="fill:none;stroke:#00bfff;stroke-linecap:square;stroke-width:3.0;"/>
   </g>
  </g>
  <g id="axes_11">
   <g id="line2d_23">
    <path clip-path="url(#pa7328ff81b)" d="M 115.493824 358.432365 
L 117.145257 360.78271 
L 118.796691 362.531705 
L 120.448125 364.48609 
L 122.099559 366.844905 
L 123.750993 370.13327 
L 125.402426 375.109224 
L 127.05386 380.853805 
L 128.705294 383.542938 
L 130.356728 381.156597 
L 132.008162 375.613172 
L 133.659596 370.179853 
L 135.311029 366.141919 
L 136.962463 362.917077 
L 138.613897 359.793871 
L 140.265331 356.60079 
L 141.916765 353.625805 
L 143.568199 351.051013 
L 145.219632 348.677377 
L 146.871066 346.485839 
L 148.5225 344.825776 
L 150.173934 343.85176 
L 151.825368 343.212296 
L 153.476801 342.80575 
L 155.128235 342.549542 
L 156.779669 342.513545 
L 158.431103 342.53472 
L 160.082537 342.244632 
L 161.733971 341.753389 
L 163.385404 341.736449 
L 165.036838 342.477549 
L 166.688272 343.676013 
L 168.339706 345.065045 
L 169.99114 346.513366 
L 171.642574 347.599606 
L 173.294007 348.313179 
L 174.945441 349.924542 
L 176.596875 351.235229 
L 178.248309 353.1028 
L 179.899743 354.760746 
" style="fill:none;stroke:#000000;stroke-linecap:square;stroke-width:3.0;"/>
   </g>
   <g id="line2d_24">
    <path clip-path="url(#pa7328ff81b)" d="M 115.493824 360.321429 
L 117.145257 361.573848 
L 118.796691 363.567525 
L 120.448125 365.911756 
L 122.099559 368.526238 
L 123.750993 371.608639 
L 125.402426 376.068546 
L 127.05386 381.635709 
L 128.705294 384.409252 
L 130.356728 381.49209 
L 132.008162 375.887864 
L 133.659596 370.549256 
L 135.311029 366.679268 
L 136.962463 363.599955 
L 138.613897 360.709046 
L 140.265331 357.890718 
L 141.916765 355.61598 
L 143.568199 354.144272 
L 145.219632 352.850158 
L 146.871066 351.17306 
L 148.5225 349.468164 
L 150.173934 348.113823 
L 151.825368 346.927809 
L 153.476801 346.022855 
L 155.128235 345.508607 
L 156.779669 345.025244 
L 158.431103 344.31796 
L 160.082537 343.260122 
L 161.733971 342.673292 
L 163.385404 342.705722 
L 165.036838 343.635384 
L 166.688272 344.032266 
L 168.339706 344.37201 
L 169.99114 345.334102 
L 171.642574 346.452167 
L 173.294007 347.611929 
L 174.945441 348.192581 
L 176.596875 349.770845 
L 178.248309 352.266416 
L 179.899743 355.080111 
" style="fill:none;stroke:#00bfff;stroke-linecap:square;stroke-width:3.0;"/>
   </g>
  </g>
  <g id="axes_12">
   <g id="line2d_25">
    <path clip-path="url(#p03b4a98c9f)" d="M 194.762647 359.088314 
L 196.414081 361.743719 
L 198.065515 364.091039 
L 199.716949 366.834469 
L 201.368382 370.575509 
L 203.019816 375.548893 
L 204.67125 381.666595 
L 206.322684 387.813638 
L 207.974118 390.733117 
L 209.625551 388.121724 
L 211.276985 382.532169 
L 212.928419 376.883931 
L 214.579853 371.323718 
L 216.231287 366.188956 
L 217.882721 362.55061 
L 219.534154 360.394011 
L 221.185588 358.912265 
L 222.837022 356.84369 
L 224.488456 354.012235 
L 226.13989 350.652634 
L 227.791324 346.764886 
L 229.442757 341.908869 
L 231.094191 337.258242 
L 232.745625 334.265409 
L 234.397059 332.959713 
L 236.048493 332.534261 
L 237.699926 332.079468 
L 239.35136 330.715088 
L 241.002794 329.717477 
L 242.654228 330.465685 
L 244.305662 332.152821 
L 245.957096 333.781274 
L 247.608529 335.395057 
L 249.259963 336.05524 
L 250.911397 335.571106 
L 252.562831 337.669023 
L 254.214265 338.094474 
L 255.865699 341.879527 
L 257.517132 342.818455 
L 259.168566 346.134044 
" style="fill:none;stroke:#000000;stroke-linecap:square;stroke-width:3.0;"/>
   </g>
   <g id="line2d_26">
    <path clip-path="url(#p03b4a98c9f)" d="M 194.762647 360.67031 
L 196.414081 365.941998 
L 198.065515 367.944555 
L 199.716949 369.818743 
L 201.368382 372.463146 
L 203.019816 376.742114 
L 204.67125 382.339004 
L 206.322684 388.226864 
L 207.974118 391.264931 
L 209.625551 388.235422 
L 211.276985 381.072429 
L 212.928419 374.474261 
L 214.579853 370.315104 
L 216.231287 367.217131 
L 217.882721 363.965115 
L 219.534154 360.199623 
L 221.185588 356.194509 
L 222.837022 352.386227 
L 224.488456 348.680641 
L 226.13989 345.240351 
L 227.791324 342.219399 
L 229.442757 339.583555 
L 231.094191 337.632346 
L 232.745625 336.725204 
L 234.397059 336.622509 
L 236.048493 337.28147 
L 237.699926 338.222843 
L 239.35136 339.052963 
L 241.002794 339.386723 
L 242.654228 340.867245 
L 244.305662 339.883083 
L 245.957096 338.770551 
L 247.608529 337.717925 
L 249.259963 339.754714 
L 250.911397 340.174053 
L 252.562831 340.696087 
L 254.214265 342.998172 
L 255.865699 344.076472 
L 257.517132 349.09998 
L 259.168566 354.345995 
" style="fill:none;stroke:#00bfff;stroke-linecap:square;stroke-width:3.0;"/>
   </g>
  </g>
 </g>
 <defs>
  <clipPath id="pa60da2dc80">
   <rect height="77.3217391304" width="66.0573529412" x="194.762647059" y="230.032173913"/>
  </clipPath>
  <clipPath id="p03b4a98c9f">
   <rect height="77.3217391304" width="66.0573529412" x="194.762647059" y="322.81826087"/>
  </clipPath>
  <clipPath id="p072e7597c4">
   <rect height="77.3217391304" width="66.0573529412" x="194.762647059" y="44.46"/>
  </clipPath>
  <clipPath id="pa7328ff81b">
   <rect height="77.3217391304" width="66.0573529412" x="115.493823529" y="322.81826087"/>
  </clipPath>
  <clipPath id="p996e5df5be">
   <rect height="77.3217391304" width="66.0573529412" x="194.762647059" y="137.246086957"/>
  </clipPath>
  <clipPath id="p76a18b9f3f">
   <rect height="77.3217391304" width="66.0573529412" x="36.225" y="44.46"/>
  </clipPath>
  <clipPath id="p77519679d7">
   <rect height="77.3217391304" width="66.0573529412" x="115.493823529" y="137.246086957"/>
  </clipPath>
  <clipPath id="p5efb464f4b">
   <rect height="77.3217391304" width="66.0573529412" x="36.225" y="137.246086957"/>
  </clipPath>
  <clipPath id="pef63e7b7e6">
   <rect height="77.3217391304" width="66.0573529412" x="36.225" y="230.032173913"/>
  </clipPath>
  <clipPath id="pe35d11bb09">
   <rect height="77.3217391304" width="66.0573529412" x="36.225" y="322.81826087"/>
  </clipPath>
  <clipPath id="pf0f15e0f2a">
   <rect height="77.3217391304" width="66.0573529412" x="115.493823529" y="44.46"/>
  </clipPath>
  <clipPath id="p3ea21fb0ff">
   <rect height="77.3217391304" width="66.0573529412" x="115.493823529" y="230.032173913"/>
  </clipPath>
 </defs>
</svg>
